<?xml version="1.0" standalone="no"?>
<!DOCTYPE svg PUBLIC "-//W3C//DTD SVG 20010904//EN"
 "http://www.w3.org/TR/2001/REC-SVG-20010904/DTD/svg10.dtd">
<svg version="1.0" xmlns="http://www.w3.org/2000/svg"
 width="1024.000000pt" height="1024.000000pt" viewBox="0 0 1024.000000 1024.000000"
 preserveAspectRatio="xMidYMid meet">
<metadata>
Created by potrace 1.14, written by Peter Selinger 2001-2017
</metadata>
<g transform="translate(0.000000,1024.000000) scale(0.100000,-0.100000)"
fill="#000000" stroke="none">
<path d="M0 5120 l0 -5120 1150 0 1150 0 0 34 c0 19 -4 38 -10 41 -5 3 -10 15
-10 26 0 10 -5 19 -10 19 -6 0 -9 13 -8 30 1 16 5 30 9 30 13 0 28 84 17 97
-8 10 -6 13 5 13 21 0 32 19 19 32 -13 13 -4 40 11 31 6 -4 8 0 4 10 -4 11 12
30 57 67 35 27 68 50 72 50 5 0 20 9 34 20 32 25 75 27 66 3 -4 -9 -1 -20 6
-25 10 -6 10 -8 1 -8 -17 0 -17 -62 -1 -78 10 -10 10 -15 1 -20 -14 -9 8 -104
25 -110 6 -2 9 -9 6 -16 -3 -7 2 -19 11 -26 8 -7 15 -23 15 -36 0 -13 5 -24
10 -24 6 0 10 -7 10 -15 0 -8 6 -15 14 -15 7 0 21 -11 30 -25 9 -14 23 -25 31
-25 8 0 15 -3 15 -8 0 -9 93 -52 113 -52 15 0 -31 48 -101 106 -12 10 -32 39
-44 64 -23 49 -36 62 -53 53 -5 -3 -5 0 2 7 8 8 8 22 1 44 -5 17 -9 47 -9 66
-1 19 -6 41 -11 48 -8 9 -7 11 6 6 13 -5 17 -2 15 12 -4 24 19 119 37 153 8
14 14 31 14 38 0 6 15 23 33 37 17 14 40 32 50 41 9 8 21 15 26 15 5 0 12 9
16 19 3 11 26 28 50 38 48 19 58 33 24 33 -29 0 -48 22 -64 77 -23 77 -21 169
4 235 22 56 102 158 125 158 6 0 28 12 49 26 90 61 234 47 345 -34 34 -24 72
-88 72 -120 0 -24 19 -42 45 -43 36 -1 127 -35 136 -50 6 -12 -4 -18 -54 -28
-60 -12 -111 -45 -146 -94 -25 -35 -40 -90 -30 -109 6 -11 5 -19 -1 -23 -6 -4
-8 -15 -5 -25 5 -16 -2 -18 -67 -22 -101 -5 -181 -45 -275 -138 -40 -40 -70
-76 -67 -81 3 -5 0 -9 -5 -9 -6 0 -11 -9 -11 -19 0 -11 -5 -21 -12 -23 -7 -3
-12 -25 -12 -54 -1 -27 -5 -52 -11 -57 -6 -5 -4 -12 5 -20 24 -19 22 -58 -5
-85 -22 -22 -29 -46 -28 -89 1 -7 -3 -13 -8 -13 -14 0 -11 -17 6 -34 11 -11
13 -21 7 -33 -5 -10 -8 -27 -7 -38 4 -57 2 -55 64 -55 l58 0 -7 38 c-4 20 -12
48 -17 62 -10 26 -9 116 2 160 3 14 7 30 9 37 1 7 5 16 9 19 4 4 2 13 -3 20
-6 6 -12 20 -14 30 -2 11 -5 24 -7 29 -1 6 5 27 15 48 9 21 14 42 11 47 -3 5
3 11 14 15 11 3 41 30 69 60 27 30 52 55 56 55 8 0 86 50 102 66 7 5 48 9 94
9 65 -2 84 -5 92 -18 13 -24 93 -57 134 -55 40 1 43 10 11 31 -47 30 -97 90
-107 126 -24 91 63 209 155 211 48 1 61 14 34 34 -19 13 -21 18 -10 25 9 6 10
11 2 15 -6 4 -16 4 -21 1 -11 -7 -31 35 -23 48 3 4 -1 14 -7 22 -9 10 -9 19
-3 27 6 7 9 21 8 31 -2 9 1 17 6 17 17 0 9 19 -12 30 -17 10 -20 9 -18 -7 2
-10 0 -31 -4 -48 -4 -16 -3 -45 2 -62 6 -21 6 -33 0 -33 -19 0 -79 46 -79 61
0 8 -14 26 -31 38 -22 16 -28 26 -19 31 9 6 9 13 1 28 -7 14 -8 23 -1 27 16
10 11 22 -11 28 -12 3 -18 10 -15 15 3 6 -29 29 -71 53 -76 41 -228 137 -365
229 -308 208 -747 640 -968 952 l-33 48 -41 -21 c-82 -42 -98 -49 -107 -49 -6
0 -25 -11 -42 -24 -18 -14 -63 -38 -101 -55 -37 -17 -81 -40 -97 -52 -16 -11
-41 -24 -57 -29 -15 -4 -36 -11 -47 -16 -20 -7 -20 -7 -1 15 11 12 60 50 109
84 49 34 119 83 155 110 37 26 71 47 77 47 5 0 23 13 38 29 l28 29 -32 25
c-31 24 -32 27 -22 62 11 34 9 40 -48 135 -66 112 -193 361 -234 460 -14 36
-32 79 -40 95 -67 150 -166 484 -215 725 -36 174 -36 176 -7 185 12 4 27 8 32
10 6 2 54 15 109 29 54 14 103 29 110 34 6 5 34 13 61 17 28 4 55 11 62 17 7
5 17 7 22 4 5 -4 12 -2 15 3 3 5 22 12 41 15 19 4 49 14 67 22 37 17 37 17
-212 -6 -173 -16 -350 -23 -350 -14 0 10 82 64 97 64 5 0 18 9 28 20 10 11 22
20 26 20 5 0 40 20 79 45 39 25 73 45 77 45 4 0 23 11 42 23 103 68 152 98
214 131 48 27 67 43 67 57 0 17 -3 18 -20 9 -11 -6 -20 -8 -20 -5 0 6 -163
-74 -170 -84 -6 -9 -97 -51 -109 -51 -5 0 -11 -3 -13 -7 -1 -5 -21 -17 -43
-28 -22 -11 -58 -31 -80 -45 -22 -13 -51 -30 -65 -37 -14 -7 -32 -17 -40 -21
-61 -36 -84 -47 -152 -79 l-76 -36 2 -43 c1 -24 6 -47 9 -51 11 -10 86 -11
131 -1 60 13 98 16 89 7 -4 -4 -46 -17 -93 -27 -146 -34 -332 -82 -397 -104
-35 -11 -69 -21 -76 -22 -6 -2 -19 -6 -27 -9 -8 -3 -33 -8 -55 -12 -22 -4 -46
-11 -52 -17 -7 -6 -13 -7 -13 -3 0 4 -6 3 -12 -2 -19 -14 -48 -24 -48 -15 0 7
16 24 159 178 36 39 109 117 161 173 52 57 121 128 153 159 31 30 57 61 57 68
0 6 12 20 27 29 15 10 37 30 49 44 12 14 39 45 60 67 98 105 122 132 126 145
3 8 8 12 11 9 3 -3 -16 -34 -43 -70 -28 -35 -50 -70 -50 -77 0 -7 -4 -13 -9
-13 -5 0 -13 -10 -17 -22 -3 -12 -19 -32 -35 -46 -16 -13 -29 -29 -29 -34 0
-6 -11 -26 -25 -43 -13 -18 -21 -35 -18 -39 3 -3 -2 -8 -11 -12 -9 -3 -16 -11
-16 -18 0 -6 -18 -31 -40 -55 -45 -49 -47 -57 -24 -82 21 -24 70 -15 106 19
15 13 35 30 46 36 70 40 118 71 127 80 6 6 26 19 45 29 75 38 90 48 90 59 0 6
3 8 7 5 3 -4 21 4 39 18 18 14 36 25 41 25 5 0 24 11 43 24 38 25 252 138 254
134 1 -2 15 -23 31 -48 15 -24 28 -50 28 -57 0 -7 4 -13 8 -13 5 0 27 -28 51
-63 50 -74 66 -88 95 -84 17 3 24 -3 32 -24 6 -19 17 -29 29 -29 11 0 22 -6
25 -14 5 -14 -42 -65 -77 -84 -12 -6 -25 -30 -32 -58 -10 -40 -9 -52 3 -70 8
-12 21 -25 29 -28 8 -3 14 -14 14 -24 0 -35 35 -55 86 -49 44 5 46 4 60 -28
14 -33 31 -45 65 -45 22 0 42 -41 33 -65 -4 -8 -1 -22 6 -30 6 -8 9 -18 6 -24
-3 -5 13 -28 36 -50 65 -64 111 -68 123 -10 l7 32 19 -24 c10 -13 37 -58 59
-100 l40 -77 65 -17 c36 -10 65 -19 65 -20 0 -1 -9 -45 -20 -98 -20 -96 -20
-137 -2 -300 5 -37 9 -69 11 -72 1 -2 5 -14 8 -25 3 -11 9 -20 14 -20 5 0 9
-7 9 -17 0 -31 54 -122 104 -175 70 -72 147 -138 163 -138 7 0 13 -4 13 -9 0
-5 14 -12 30 -16 17 -4 30 -11 30 -17 0 -26 91 -72 162 -82 27 -4 48 -12 48
-18 0 -5 7 -7 16 -4 8 3 38 -1 65 -10 27 -9 56 -14 64 -10 8 3 15 1 15 -5 0
-6 13 -7 33 -4 35 7 46 7 125 2 30 -1 56 1 59 6 3 5 11 6 19 3 15 -6 123 16
143 28 47 30 400 46 432 20 13 -11 29 -14 73 -15 10 0 28 -7 40 -15 11 -7 31
-14 45 -14 24 0 177 -61 218 -88 20 -12 21 -20 17 -70 -4 -47 -5 -170 -3 -394
0 -45 -3 -63 -14 -69 -19 -13 -37 -82 -25 -96 8 -10 6 -13 -6 -13 -17 0 -29
-22 -42 -75 -4 -16 -8 -32 -9 -35 -49 -164 -66 -331 -34 -351 11 -7 12 -11 1
-17 -10 -7 -10 -11 3 -22 8 -7 15 -24 15 -38 0 -17 15 -39 49 -71 70 -65 74
-68 112 -75 51 -11 93 -28 106 -46 7 -8 13 -11 13 -6 0 5 7 3 15 -4 16 -13
128 -16 148 -3 6 4 18 8 27 9 39 4 74 14 84 24 14 14 56 12 90 -5 15 -8 35
-15 42 -15 8 0 14 -3 14 -7 0 -10 57 -43 92 -53 35 -11 96 6 125 33 13 11 26
18 29 14 4 -3 18 3 32 13 13 11 29 20 34 20 5 0 28 13 51 28 23 16 50 32 60
35 18 7 21 13 31 57 3 14 14 35 25 46 10 12 28 39 40 60 30 57 44 72 74 79 15
4 27 11 27 15 0 4 16 15 36 25 39 18 42 21 124 95 30 27 60 50 66 50 7 0 14 7
17 15 10 23 89 69 127 72 48 3 80 22 86 52 10 47 13 51 49 72 19 12 41 33 48
47 7 16 21 27 32 27 12 0 25 11 33 28 7 15 21 27 30 27 18 1 75 71 86 107 4
13 22 27 42 35 18 6 34 15 34 18 0 7 91 71 129 90 21 11 86 8 156 -7 11 -3 39
-6 62 -6 22 -1 39 -5 37 -8 -3 -6 16 -18 36 -24 76 -21 129 -38 144 -46 18
-11 101 -38 141 -47 11 -2 70 -5 130 -6 61 0 116 -5 122 -9 7 -4 27 -10 45
-13 67 -9 194 -25 213 -27 11 -1 37 -18 57 -38 64 -63 118 -54 168 26 23 38
21 83 -6 106 -8 6 -14 17 -14 24 0 7 -10 20 -22 29 -13 9 -38 27 -57 41 -22
16 -48 25 -71 25 -39 0 -70 26 -70 60 0 11 -4 20 -10 20 -5 0 -10 9 -10 21 0
43 -90 107 -131 94 -23 -7 -24 3 -4 29 21 28 19 40 -13 73 -25 28 -27 35 -27
119 0 85 -1 89 -22 89 -31 1 -51 21 -35 37 16 16 15 63 -3 98 -15 29 -57 46
-101 41 -15 -1 -35 13 -63 45 -29 33 -49 47 -69 48 -15 1 -33 5 -39 9 -7 5
-13 6 -13 2 0 -5 -57 24 -125 63 -33 18 -83 72 -130 137 -42 58 -86 98 -115
103 -14 2 -63 7 -110 11 -47 3 -85 11 -85 16 0 6 -8 10 -17 9 -25 -1 -22 19 7
50 14 15 25 30 25 34 0 4 16 18 35 31 19 13 35 29 35 36 0 6 18 26 40 44 22
17 40 38 40 46 0 8 5 15 11 15 5 0 15 14 20 30 6 17 15 30 19 30 12 0 70 107
70 129 0 11 5 23 10 26 6 3 10 18 10 33 0 15 4 33 9 41 5 7 5 27 1 42 -5 18
-5 31 1 35 11 7 6 53 -16 149 -7 33 -16 79 -19 103 -6 44 -19 99 -38 161 -6
19 -16 59 -23 89 l-13 54 76 -5 c45 -3 78 -10 83 -18 4 -8 28 -13 58 -13 46 0
55 4 91 39 23 23 40 49 40 61 0 13 4 25 9 28 5 3 14 27 21 53 6 27 34 94 60
150 27 56 52 114 56 128 8 31 47 73 89 95 17 9 40 22 53 30 35 23 142 125 142
137 0 5 9 18 20 28 11 10 20 23 20 30 0 7 10 20 21 31 22 19 54 82 51 97 -5
18 22 105 44 144 13 23 24 49 24 57 0 9 9 24 21 34 11 9 27 32 36 50 8 17 19
32 24 32 5 0 9 9 9 19 0 11 6 26 13 33 6 7 21 30 32 51 11 22 32 45 48 53 15
8 27 21 27 29 0 8 6 15 13 15 12 0 32 25 36 45 1 6 9 14 17 18 8 5 12 12 9 18
-4 5 -2 9 3 9 10 0 27 83 23 110 -4 30 -37 62 -76 76 -25 9 -95 16 -190 18
-158 4 -241 21 -312 66 -79 48 -41 140 58 140 30 0 177 44 214 63 11 6 25 11
30 12 6 0 11 11 13 25 2 14 7 34 11 45 5 11 16 38 25 60 20 47 47 79 101 120
50 38 83 55 104 55 22 0 63 29 56 40 -5 9 -48 7 -131 -6 -19 -2 -65 -32 -117
-74 -87 -70 -109 -84 -85 -53 14 17 108 110 144 141 35 30 139 72 180 72 68 1
115 32 252 168 l131 131 39 -52 c195 -260 392 -598 504 -867 171 -408 270
-795 313 -1220 9 -85 17 -160 18 -167 1 -8 15 -5 42 8 22 11 45 17 51 15 7 -3
15 2 18 11 4 10 14 13 27 10 14 -4 19 -2 16 7 -7 17 64 48 89 40 12 -4 15 -3
7 3 -9 6 -8 11 5 20 15 9 17 7 16 -16 0 -14 -4 -25 -8 -23 -3 1 -16 -7 -29
-19 -23 -22 -87 -69 -75 -54 10 11 -10 35 -29 35 -10 0 -11 -4 -3 -19 13 -25
13 -51 0 -51 -5 0 -10 7 -10 16 0 8 -5 12 -11 9 -5 -4 -8 -12 -6 -18 3 -11
-35 -57 -48 -57 -15 0 -44 -46 -45 -72 l0 -27 48 23 c26 13 58 27 72 31 20 6
17 1 -15 -24 -22 -17 -50 -40 -61 -51 -12 -11 -26 -20 -32 -20 -5 0 -12 -67
-16 -157 -29 -651 -181 -1222 -472 -1783 -104 -198 -121 -222 -168 -233 -30
-8 -37 -13 -33 -28 3 -11 1 -19 -4 -19 -5 0 -9 -4 -9 -10 0 -5 7 -10 15 -10 8
0 15 -5 15 -11 0 -6 9 -8 21 -4 15 5 22 2 26 -15 3 -13 11 -19 20 -16 11 4 11
1 3 -14 -6 -11 -17 -20 -25 -20 -7 0 -27 -11 -43 -25 -17 -14 -44 -30 -61 -36
-19 -7 -50 -37 -85 -84 -41 -54 -70 -81 -113 -105 -32 -18 -67 -41 -78 -51
-11 -9 -48 -31 -82 -49 -35 -17 -63 -35 -63 -40 0 -4 -18 -15 -39 -23 -22 -9
-42 -21 -46 -26 -3 -6 -25 -19 -48 -29 -24 -11 -73 -40 -109 -66 -37 -25 -70
-46 -74 -46 -4 0 -22 -11 -40 -25 -18 -14 -35 -25 -38 -25 -3 0 -15 -9 -26
-20 -11 -11 -27 -20 -35 -20 -8 0 -15 -4 -15 -10 0 -5 -5 -10 -10 -10 -14 0
-155 -86 -201 -122 -20 -15 -44 -28 -53 -28 -9 0 -19 -7 -22 -15 -3 -8 -21
-20 -40 -27 -19 -6 -34 -15 -34 -20 0 -4 -16 -15 -35 -24 -19 -9 -35 -20 -35
-25 0 -5 -6 -9 -13 -9 -7 0 -23 -9 -35 -20 -12 -11 -28 -20 -35 -20 -8 0 -20
-7 -28 -16 -7 -8 -31 -25 -53 -36 -23 -11 -58 -34 -78 -50 -35 -27 -41 -29
-100 -23 -35 3 -91 11 -125 17 -71 12 -118 0 -194 -48 -24 -15 -71 -42 -104
-59 -33 -18 -87 -50 -120 -72 -33 -22 -81 -50 -107 -62 -27 -13 -48 -27 -48
-32 0 -5 -6 -9 -14 -9 -7 0 -24 -11 -37 -23 -13 -13 -33 -29 -44 -35 -44 -25
57 0 110 27 46 24 53 26 52 11 -1 -11 -7 -16 -16 -12 -9 3 -12 1 -7 -6 4 -7 1
-12 -6 -12 -8 0 -20 -9 -28 -20 -8 -11 -20 -20 -26 -20 -7 0 -26 -11 -42 -25
-17 -14 -37 -25 -46 -25 -9 0 -16 -3 -16 -8 0 -4 -17 -16 -37 -27 -21 -11 -51
-29 -68 -41 -16 -12 -50 -32 -74 -45 -72 -39 -81 -46 -75 -52 3 -3 -10 -9 -30
-12 -20 -4 -36 -11 -36 -15 0 -6 -51 -37 -128 -79 -15 -8 -61 -16 -102 -19
-117 -6 -259 -20 -270 -27 -5 -3 -10 -13 -10 -21 0 -8 -6 -14 -13 -14 -8 0
-22 -8 -31 -19 -9 -10 -31 -22 -49 -26 -18 -4 -35 -9 -39 -10 -5 -1 -13 -3
-19 -4 -5 0 -7 -6 -4 -12 4 -6 -2 -13 -14 -16 -12 -3 -21 -8 -21 -12 0 -4 -16
-15 -36 -26 -19 -10 -40 -27 -45 -37 -5 -10 -18 -18 -29 -18 -20 0 -64 53 -53
64 3 3 1 6 -5 6 -7 0 -12 8 -12 19 0 10 -7 24 -15 31 -8 7 -15 18 -15 25 0 7
-7 15 -15 19 -8 3 -20 17 -27 31 -11 25 -58 45 -108 45 -22 0 -18 -6 33 -54
31 -29 57 -56 57 -59 0 -9 30 -45 53 -66 31 -28 62 -84 49 -89 -7 -2 -9 -9 -5
-14 4 -7 -1 -9 -14 -6 -13 4 -27 -2 -37 -13 -9 -11 -25 -19 -35 -19 -11 0 -28
-11 -39 -25 -11 -14 -25 -25 -31 -25 -6 0 -11 -4 -11 -10 0 -5 -26 -21 -57
-35 -32 -14 -75 -34 -95 -44 -26 -13 -38 -15 -41 -7 -3 7 -10 4 -18 -7 -12
-15 -17 -16 -33 -4 -18 13 -15 18 53 86 40 39 83 74 97 77 29 7 30 15 6 30
-26 17 -82 6 -82 -16 0 -10 -12 -23 -28 -29 -55 -24 -156 -82 -174 -101 -10
-11 -27 -20 -38 -20 -10 0 -22 -5 -25 -10 -3 -5 -15 -10 -26 -10 -11 0 -36
-15 -55 -34 -19 -19 -50 -37 -68 -40 -19 -4 -39 -13 -46 -21 -7 -8 -18 -15
-25 -15 -20 0 -75 -49 -75 -67 0 -8 -7 -13 -18 -11 -9 1 -27 -7 -40 -20 -13
-13 -34 -22 -52 -22 -16 0 -39 -9 -49 -19 -44 -44 -110 -61 -132 -35 -9 11 -8
14 5 14 16 0 21 12 9 23 -3 4 -12 2 -20 -4 -22 -19 -18 122 5 147 24 28 93 79
117 88 12 4 15 10 8 14 -15 10 -43 79 -35 87 4 4 -1 13 -11 20 -18 13 -18 16
10 67 16 29 28 65 28 80 -1 15 5 30 12 32 7 3 13 13 13 23 0 10 14 38 30 63
16 25 30 51 30 58 0 6 5 12 10 12 6 0 10 6 10 14 0 13 55 59 127 107 l25 17
-55 16 c-30 9 -62 16 -71 16 -38 0 -180 -170 -201 -240 -9 -30 -32 -87 -47
-115 -13 -23 -20 -113 -11 -128 12 -20 12 -58 0 -61 -7 -2 -32 -9 -57 -16 -58
-16 -137 -96 -146 -149 -3 -20 -10 -51 -16 -68 -13 -46 0 -138 23 -159 10 -9
16 -21 13 -25 -3 -5 1 -16 10 -24 13 -13 76 -15 450 -15 290 0 436 4 436 11 0
5 16 17 35 25 20 8 52 30 72 49 20 18 50 39 67 46 17 7 46 25 64 41 18 15 37
28 43 28 10 0 70 42 97 68 8 7 33 21 56 32 24 10 49 26 56 35 8 9 34 26 59 38
25 12 62 32 81 44 19 13 42 28 50 33 8 6 38 24 65 41 48 30 49 30 26 5 -14
-14 -30 -26 -37 -26 -6 0 -14 -7 -18 -15 -3 -8 -12 -15 -20 -15 -8 0 -16 -4
-18 -9 -1 -4 -48 -39 -103 -76 -117 -79 -127 -87 -121 -92 3 -4 74 33 247 129
46 25 98 52 114 60 17 7 32 15 35 18 13 13 71 50 101 64 19 9 54 29 79 46 25
16 56 34 69 40 14 6 34 21 46 33 11 12 27 23 35 25 23 5 100 53 100 63 0 5 7
9 16 9 8 0 30 11 48 25 18 14 38 25 44 25 6 0 17 6 24 13 7 7 46 32 86 56 40
24 89 57 109 72 20 16 39 29 44 29 16 0 78 46 79 58 0 7 5 10 10 7 14 -9 42
14 33 28 -3 6 -1 7 6 3 12 -8 46 10 140 73 29 20 61 41 70 46 9 6 29 18 46 28
l30 19 -22 -20 c-37 -32 -27 -35 25 -6 26 14 58 30 72 35 25 9 24 9 -4 -16
-34 -31 -27 -45 11 -20 15 10 40 20 57 22 16 1 33 9 38 16 6 9 8 9 8 0 0 -7
-9 -22 -20 -33 -11 -11 -19 -30 -17 -42 1 -17 -10 -30 -48 -54 -27 -18 -54
-37 -60 -41 -5 -5 -18 -12 -27 -16 -10 -3 -18 -11 -18 -16 0 -5 -11 -12 -25
-15 -14 -4 -25 -11 -25 -16 0 -6 -6 -10 -13 -10 -7 0 -19 -9 -27 -19 -7 -11
-17 -18 -20 -16 -4 2 -16 -4 -27 -14 -11 -11 -35 -27 -54 -36 -19 -10 -38 -24
-42 -31 -4 -8 -13 -14 -20 -14 -7 0 -26 -14 -44 -30 -18 -17 -35 -30 -39 -30
-6 0 -56 -38 -85 -65 -9 -8 -21 -15 -27 -15 -7 0 -12 -5 -12 -10 0 -6 -10 -15
-22 -20 -25 -11 -56 -30 -74 -45 -63 -54 -140 -105 -158 -105 -7 0 -22 -9 -34
-20 -12 -11 -25 -20 -30 -20 -5 0 -26 -13 -47 -30 -21 -16 -41 -30 -45 -30 -4
0 -40 -18 -81 -41 -41 -23 -108 -59 -149 -81 -41 -23 -80 -47 -86 -54 -6 -8
-19 -14 -29 -14 -10 0 -29 -10 -42 -21 -19 -19 -25 -20 -38 -9 -15 12 -14 16
9 37 27 25 52 31 40 11 -4 -8 -3 -10 2 -5 5 5 9 13 9 19 0 6 23 26 50 44 28
19 55 38 61 43 7 6 52 40 100 77 49 37 91 69 93 70 2 2 2 7 -2 10 -3 3 -27 -9
-54 -28 -47 -32 -93 -46 -93 -27 0 5 -5 9 -11 9 -6 0 -9 -6 -6 -13 7 -19 -2
-29 -43 -49 -19 -10 -47 -28 -63 -40 -21 -17 -30 -19 -39 -10 -9 9 -9 12 0 12
7 0 12 5 12 11 0 23 -25 1 -31 -27 -3 -17 -11 -28 -18 -26 -8 2 -20 -6 -27
-17 -9 -12 -28 -21 -52 -23 -27 -2 -40 -9 -47 -25 -10 -24 -41 -31 -47 -12 -4
11 -38 2 -38 -11 0 -16 -94 -100 -112 -100 -10 0 -28 -10 -40 -22 -13 -13 -28
-23 -34 -23 -21 0 -124 -60 -124 -72 0 -7 -12 -19 -27 -27 -26 -14 -10 -15
178 -16 204 0 207 0 243 25 20 14 43 25 51 25 8 0 15 6 15 13 1 10 48 44 129
92 9 6 28 20 41 33 13 12 29 22 35 22 7 0 33 16 58 35 25 19 51 35 56 35 6 0
11 5 11 10 0 6 5 10 10 10 6 0 41 21 78 48 83 58 101 69 132 83 14 5 34 19 45
30 25 25 153 109 166 109 5 0 19 11 31 25 12 14 30 25 40 25 10 0 21 7 25 15
3 9 22 25 42 36 20 10 43 23 51 29 8 5 31 16 51 25 20 9 46 25 57 35 12 11 26
20 32 20 5 0 10 5 10 10 0 6 3 9 8 8 14 -3 62 14 62 23 0 5 5 9 12 9 6 0 27
12 47 27 20 16 38 28 41 28 3 1 15 6 28 13 23 13 32 -1 10 -15 -12 -8 -48 -65
-48 -77 0 -3 8 -2 19 2 18 7 32 16 115 77 22 17 62 45 88 63 25 18 52 38 60
44 22 21 127 98 133 98 3 0 4 -4 1 -9 -3 -5 1 -14 9 -21 8 -7 15 -20 15 -29 0
-22 -74 -101 -95 -101 -8 0 -18 -7 -21 -15 -4 -10 -13 -13 -25 -10 -11 4 -19
2 -19 -4 0 -6 -7 -11 -15 -11 -8 0 -15 -6 -15 -14 0 -8 -11 -17 -25 -20 -14
-4 -25 -11 -25 -17 0 -13 -62 -39 -92 -39 -17 0 -28 -11 -42 -40 -18 -38 -40
-55 -57 -45 -4 3 -20 -1 -33 -10 -14 -9 -30 -14 -36 -10 -6 4 -27 -12 -47 -34
-24 -29 -41 -40 -53 -36 -11 3 -20 -1 -24 -10 -3 -8 -12 -15 -21 -15 -8 0 -15
-4 -15 -10 0 -5 -16 -16 -35 -24 -19 -8 -35 -21 -35 -29 0 -17 -21 -27 -56
-27 -13 0 -33 -9 -44 -20 -11 -11 -24 -20 -29 -20 -5 0 -11 -9 -14 -20 -4 -14
-14 -20 -35 -20 -21 0 -35 -8 -46 -25 -9 -14 -24 -25 -34 -25 -10 0 -27 -7
-38 -15 -10 -8 -27 -15 -36 -15 -9 0 -24 -10 -32 -21 -15 -22 -82 -68 -146
-101 -14 -7 -31 -20 -37 -29 -8 -11 -21 -15 -34 -12 -14 4 -22 0 -25 -14 -5
-19 -52 -45 -84 -47 -20 -1 -80 -51 -80 -66 0 -6 -5 -10 -12 -10 -6 0 -32 -10
-57 -22 l-46 -23 199 -3 c184 -2 201 -1 233 18 19 11 31 16 28 10 -4 -6 6 -10
22 -11 25 0 26 -1 8 -9 -11 -5 918 -9 2123 -9 l2142 -1 0 5120 0 5120 -959 0
-960 0 -5 -42 c-3 -24 -8 -86 -10 -138 -3 -52 -12 -129 -21 -170 -16 -80 -47
-192 -52 -187 -1 2 2 30 7 63 16 95 14 215 -5 262 -10 23 -20 42 -24 42 -3 0
-6 -48 -6 -108 0 -123 -14 -196 -58 -301 -31 -74 -102 -193 -118 -199 -5 -2
-9 -9 -9 -16 0 -7 -29 -41 -64 -74 -57 -55 -77 -68 -89 -59 -2 1 -11 -3 -19
-10 -12 -10 -63 -27 -148 -48 -41 -10 -221 -48 -262 -55 -84 -15 -202 -51
-277 -86 -40 -19 -68 -27 -61 -19 7 8 18 15 25 15 7 0 27 16 46 35 29 30 81
57 114 60 22 2 130 40 133 47 2 5 7 6 11 4 14 -9 110 22 156 49 25 14 45 22
45 18 0 -4 6 -1 13 8 7 9 22 19 35 23 12 4 35 18 50 32 31 27 27 23 87 87 24
26 49 47 55 47 5 0 10 4 10 9 0 5 20 24 45 42 24 19 45 38 45 43 0 5 20 33 45
62 25 28 45 58 45 64 0 7 9 25 21 41 11 16 17 33 14 39 -3 5 -3 10 2 10 19 0
47 97 58 198 4 40 2 62 -4 62 -7 0 -7 8 -1 26 13 34 13 81 -1 89 -6 4 -8 13
-5 21 4 12 -27 14 -194 14 l-199 0 -51 -50 c-28 -27 -54 -50 -57 -50 -3 0 -22
-18 -43 -40 -21 -22 -43 -40 -49 -40 -6 0 -16 -11 -21 -24 -6 -18 -21 -27 -59
-36 -28 -7 -51 -16 -51 -21 0 -5 -12 -12 -27 -15 -16 -4 -44 -18 -63 -31 -19
-12 -39 -23 -45 -23 -6 0 -37 -24 -70 -54 -44 -40 -71 -56 -100 -61 -43 -7
-129 -47 -153 -72 -23 -22 -62 -35 -104 -32 -30 3 -44 -3 -72 -29 -20 -18 -36
-37 -36 -42 0 -6 -5 -10 -12 -10 -6 0 -19 -7 -28 -15 -15 -13 -28 -14 -89 -4
-66 10 -74 9 -86 -8 -8 -10 -15 -23 -15 -29 0 -7 -6 -14 -14 -17 -8 -3 -16
-21 -18 -39 -3 -29 -7 -33 -46 -43 -43 -10 -82 -44 -82 -71 0 -11 11 -9 48 10
26 13 83 36 127 50 44 15 89 31 100 35 37 17 75 19 75 5 0 -20 -80 -90 -121
-106 -11 -4 -19 -12 -19 -18 0 -5 -5 -10 -11 -10 -6 0 -37 -22 -69 -50 -62
-54 -71 -57 -89 -36 -24 29 -91 38 -161 22 -72 -17 -80 -13 -80 40 0 37 21 84
37 84 7 0 17 9 23 20 6 11 22 32 36 47 l25 27 32 -19 c34 -20 102 -22 124 -3
7 6 13 19 13 29 0 10 9 21 20 24 11 3 20 13 20 21 0 8 7 17 15 20 19 8 29 82
16 116 -7 20 -21 30 -51 38 -22 6 -40 13 -40 16 0 2 20 25 45 51 41 41 45 51
45 94 0 48 15 73 31 48 4 -7 12 -10 16 -5 4 5 2 11 -4 13 -22 8 -14 23 34 70
l47 46 15 -24 c9 -13 26 -32 38 -42 12 -11 19 -26 16 -33 -7 -19 31 -18 47 0
8 11 24 13 61 9 45 -5 49 -4 49 16 0 11 -4 21 -10 21 -18 0 -10 22 18 48 16
15 31 35 35 45 4 9 15 20 24 24 10 4 29 15 43 24 14 10 53 28 88 40 61 20 64
20 83 3 11 -9 29 -18 42 -19 14 -1 27 -12 36 -31 21 -48 40 -55 100 -38 33 10
51 21 51 31 0 8 20 35 45 59 l44 44 -572 -1 c-315 0 -563 -4 -552 -9 20 -8 20
-8 0 -16 -11 -4 -39 -28 -62 -53 -24 -26 -41 -39 -38 -30 4 10 0 19 -9 22 -9
4 -13 13 -10 22 3 8 1 15 -6 15 -6 0 -9 4 -6 9 4 5 3 16 0 25 -5 13 -24 16
-108 15 -100 0 -101 0 -68 -16 17 -9 32 -22 32 -28 0 -7 8 -19 19 -29 11 -10
16 -25 14 -40 -4 -19 2 -26 32 -40 20 -10 45 -16 56 -13 13 3 17 1 12 -6 -40
-68 -56 -87 -73 -87 -11 0 -20 -4 -20 -10 0 -5 5 -10 11 -10 5 0 -9 -37 -33
-82 -40 -76 -67 -142 -68 -160 0 -18 19 -6 26 15 4 12 10 24 13 27 6 4 53 76
86 131 29 48 69 99 109 143 25 26 46 51 46 54 0 8 50 52 59 52 16 0 19 -55 6
-85 -11 -27 -80 -103 -146 -161 -39 -35 -79 -81 -79 -92 0 -6 -8 -13 -17 -17
-19 -6 -117 -127 -153 -188 -12 -20 -26 -37 -31 -37 -5 0 -9 -7 -9 -15 0 -8
-4 -15 -8 -15 -5 0 -16 -15 -25 -34 -12 -26 -26 -37 -53 -45 -40 -11 -94 -56
-94 -78 0 -7 -6 -13 -12 -13 -23 0 -53 -80 -54 -142 -1 -48 2 -58 17 -63 11
-4 19 -10 19 -15 0 -5 9 -11 19 -15 11 -3 25 -20 30 -38 15 -45 76 -71 147
-62 45 5 51 4 50 -12 -1 -22 -36 -63 -52 -63 -19 0 -136 -102 -127 -111 4 -4
19 -9 33 -11 19 -2 10 -8 -40 -25 -52 -17 -68 -19 -78 -9 -10 10 -5 18 25 42
21 17 56 41 78 54 64 38 75 66 23 55 -103 -22 -423 -174 -436 -207 -2 -4 -8
-8 -12 -8 -20 0 -110 -69 -175 -134 -71 -71 -117 -144 -130 -207 -4 -19 -11
-38 -15 -44 -16 -22 -20 -68 -8 -101 17 -48 4 -58 -58 -43 -60 14 -155 12
-209 -3 -59 -18 -157 -120 -175 -183 -12 -45 -12 -53 11 -119 13 -39 24 -75
24 -79 0 -4 7 -12 15 -17 8 -5 12 -12 8 -15 -10 -10 12 -66 23 -59 12 7 38
-56 31 -75 -3 -9 -2 -13 3 -9 10 10 34 -21 35 -44 0 -10 4 -18 9 -18 5 0 11
-9 14 -20 3 -11 1 -20 -4 -20 -5 0 -9 -4 -9 -10 0 -5 7 -6 17 -3 11 4 14 3 9
-5 -7 -12 12 -52 30 -64 7 -4 15 -20 19 -35 9 -36 20 -42 62 -33 24 6 46 4 70
-6 54 -23 59 -12 9 20 -43 27 -55 52 -18 39 33 -12 93 -54 99 -68 7 -20 20
-19 49 4 20 16 22 22 12 33 -7 7 -21 26 -31 41 -10 15 -22 25 -26 22 -5 -2
-19 3 -32 13 -47 34 -69 42 -116 42 -59 0 -51 9 15 15 37 4 54 1 65 -10 9 -8
17 -11 19 -6 2 6 25 -1 52 -14 50 -24 66 -24 66 -1 0 8 35 51 79 97 56 60 75
86 67 94 -26 25 -130 76 -183 90 -32 8 -82 15 -113 16 -49 1 -52 2 -25 10 41
13 161 3 215 -18 56 -22 110 -54 110 -66 0 -4 5 -5 10 -2 6 4 17 2 24 -4 10
-8 25 -7 57 4 31 11 62 14 114 9 64 -6 77 -4 125 19 59 28 75 28 44 -2 -48
-44 -68 -50 -186 -54 -49 -1 -93 -8 -99 -14 -7 -7 3 -24 35 -57 25 -25 46 -53
46 -61 0 -19 10 -19 71 1 73 24 72 13 -4 -48 l-28 -23 16 -49 c9 -26 14 -50
11 -53 -3 -3 0 -15 5 -26 8 -14 8 -22 -1 -27 -9 -5 -9 -9 -1 -14 14 -9 14 -79
1 -92 -6 -6 -13 -21 -15 -34 -3 -13 -12 -31 -20 -39 -14 -15 -16 -13 -16 19 0
19 0 46 -1 60 -2 42 6 100 13 100 4 0 -1 17 -11 38 -10 21 -22 51 -26 66 -6
24 -8 25 -23 13 -9 -8 -29 -21 -46 -30 -16 -8 -42 -26 -56 -39 -14 -13 -37
-33 -52 -43 l-26 -20 12 -85 c13 -86 14 -133 4 -160 -3 -8 -7 -24 -9 -35 -4
-20 -33 -25 -83 -14 -15 3 -21 -2 -23 -18 -2 -13 -18 -33 -35 -45 -18 -12 -35
-26 -38 -31 -10 -15 -108 -15 -136 0 -31 16 -38 12 -24 -15 10 -19 8 -19 -37
3 -26 13 -66 44 -90 69 -24 25 -50 46 -58 46 -7 0 -14 7 -14 15 0 8 -4 15 -10
15 -14 0 -12 -12 5 -36 8 -12 12 -24 10 -26 -7 -7 21 -69 42 -94 10 -12 26
-24 37 -28 13 -5 17 -12 12 -31 -19 -77 -31 -87 -251 -210 -151 -84 -255 -129
-255 -110 0 7 7 20 15 29 8 8 15 17 15 20 0 9 67 102 127 176 52 64 70 98 36
67 -10 -8 -47 -26 -83 -40 -36 -13 -107 -46 -157 -72 -51 -26 -109 -51 -129
-55 -54 -12 -59 10 -37 170 2 19 5 44 7 56 1 11 5 24 8 30 3 5 13 36 23 69 9
33 23 74 30 90 7 17 26 58 41 93 18 42 32 61 41 58 31 -12 9 4 -37 27 -27 14
-48 22 -46 18 6 -8 2 -14 -116 -188 -116 -170 -110 -162 -204 -288 -87 -116
-149 -183 -160 -172 -10 10 -6 91 6 123 15 38 5 42 -14 5 -9 -17 -19 -56 -22
-88 -6 -74 9 -98 58 -89 37 7 61 28 114 99 19 26 39 47 44 47 6 0 10 5 10 12
0 7 18 38 40 69 22 32 40 60 40 64 0 3 11 18 25 33 14 15 25 31 25 35 0 5 11
23 25 41 36 45 38 47 65 96 13 25 28 50 32 55 5 6 15 19 24 30 8 11 6 1 -6
-22 -21 -44 -58 -138 -65 -170 -24 -94 -36 -159 -39 -222 -4 -71 -3 -76 26
-113 18 -22 40 -38 52 -38 17 0 12 -6 -19 -28 -92 -62 -145 -107 -145 -123 0
-29 28 -29 62 -1 18 15 38 30 43 35 6 4 48 38 95 75 l85 67 -60 5 -60 5 45 14
c25 8 68 25 95 37 28 12 68 30 90 40 22 10 44 20 49 22 4 2 -11 -20 -35 -49
-24 -30 -59 -77 -77 -106 -29 -44 -32 -55 -22 -74 10 -19 18 -21 55 -16 51 7
175 55 175 68 0 5 9 9 21 9 11 0 27 7 35 15 9 8 23 15 33 15 9 0 27 9 39 20
12 11 28 20 37 20 8 0 33 11 55 25 22 14 43 25 46 25 4 0 12 7 18 15 6 8 21
17 33 19 26 5 56 21 75 38 7 7 31 22 53 33 22 11 65 35 95 54 30 19 91 53 135
76 113 59 145 79 145 88 0 5 4 5 10 2 5 -3 15 3 22 15 7 11 18 20 25 20 7 0
13 5 13 11 0 5 4 8 9 5 5 -3 52 19 104 49 53 30 101 53 109 52 7 -2 10 -2 6 0
-16 9 -7 22 28 42 19 12 39 21 43 21 9 0 119 63 137 79 6 5 30 19 52 30 23 12
49 29 59 39 25 26 53 35 53 18 0 -8 -16 -37 -35 -65 -19 -28 -35 -54 -35 -58
0 -4 -9 -17 -21 -29 -12 -13 -22 -35 -24 -51 -1 -15 -12 -44 -23 -63 -12 -19
-22 -40 -22 -46 0 -7 -11 -22 -25 -35 -32 -29 -47 -65 -65 -146 -8 -35 -18
-63 -22 -63 -4 0 -8 -11 -8 -25 0 -36 -29 -140 -40 -143 -6 -2 -10 -19 -10
-38 0 -62 -86 -248 -122 -262 -4 -2 -8 -10 -8 -17 0 -7 -11 -27 -25 -43 -14
-17 -25 -36 -25 -43 0 -32 -77 -114 -128 -139 -31 -15 -55 -33 -58 -45 -4 -18
-13 -21 -63 -20 -34 0 -65 6 -75 14 -15 13 -11 20 45 80 160 170 149 145 99
225 l-24 39 -26 -31 c-40 -48 -130 -68 -236 -52 -102 15 -129 30 -54 30 74 0
172 17 206 35 16 8 36 15 45 15 9 0 24 9 35 21 16 17 16 22 4 30 -8 5 -21 7
-27 4 -122 -44 -191 -57 -278 -52 -99 6 -161 22 -169 44 -9 22 43 103 78 124
43 26 55 24 54 -10 -1 -41 9 -51 50 -51 42 0 78 20 139 78 47 43 51 60 27 96
-14 23 -14 26 7 45 31 29 37 27 56 -21 9 -23 19 -36 21 -29 6 19 201 211 213
211 6 0 25 15 43 33 33 33 106 81 112 74 8 -7 -340 -337 -355 -337 -6 0 -11
-4 -11 -10 0 -16 46 -12 60 5 7 8 17 15 23 15 5 0 19 9 31 21 28 27 97 79 106
79 3 0 13 11 20 25 7 14 18 25 24 25 11 0 92 74 136 126 14 16 48 47 75 69 27
21 60 50 73 62 14 13 29 23 33 23 5 0 9 6 9 14 0 30 -34 25 -104 -16 -39 -23
-98 -55 -130 -72 -33 -17 -65 -34 -70 -39 -38 -27 -94 -60 -176 -104 -52 -28
-115 -61 -140 -75 -25 -14 -70 -38 -100 -55 -96 -52 -205 -116 -210 -122 -3
-3 -30 -19 -60 -34 -30 -15 -73 -39 -95 -52 -22 -14 -47 -28 -55 -32 -8 -3
-28 -16 -45 -27 -35 -25 -117 -71 -161 -91 -17 -8 -36 -21 -44 -29 -7 -9 -16
-16 -21 -16 -15 0 -97 -60 -103 -75 -3 -8 -12 -15 -21 -15 -8 0 -15 -4 -15
-10 0 -5 -7 -10 -15 -10 -8 0 -30 -14 -48 -31 -17 -17 -51 -40 -75 -51 -24
-12 -51 -32 -60 -45 -15 -24 -15 -26 17 -53 27 -24 99 -48 124 -42 4 1 18 -3
30 -10 12 -6 47 -13 77 -14 30 -2 71 -6 90 -9 19 -3 59 -6 88 -5 36 1 52 -3
47 -9 -3 -6 -16 -11 -28 -11 -12 0 -47 -7 -77 -16 -30 -9 -66 -18 -80 -21 -71
-14 -160 -48 -186 -70 -66 -56 -15 -168 123 -271 l28 -22 -45 14 c-25 8 -86
28 -137 45 -147 48 -213 53 -213 14 0 -23 63 -97 116 -135 25 -18 41 -34 35
-36 -5 -2 -46 8 -89 22 -88 28 -280 56 -382 56 -36 0 -82 5 -103 11 -28 7 -58
7 -105 0 -37 -6 -79 -12 -94 -13 -16 -1 -28 -6 -28 -10 0 -4 -7 -5 -15 -2 -15
6 -150 -20 -193 -37 -13 -5 -33 -9 -45 -9 -12 0 -35 -7 -51 -15 -15 -8 -34
-15 -41 -15 -8 0 -26 -11 -42 -24 -15 -13 -39 -27 -53 -31 -14 -4 -52 -20 -85
-35 -33 -15 -70 -30 -82 -34 -13 -4 -23 -11 -23 -16 0 -5 -9 -11 -19 -15 -11
-3 -22 -19 -26 -36 -6 -27 -2 -36 28 -64 l35 -33 -66 -1 c-81 -1 -132 -6 -162
-16 -17 -5 -21 -4 -15 5 5 9 4 11 -3 6 -7 -4 -36 -13 -66 -21 -29 -8 -75 -28
-100 -46 -26 -17 -48 -30 -49 -28 -1 2 -12 23 -24 46 -20 38 -20 43 -5 56 10
8 25 17 35 20 9 4 20 14 24 23 3 9 30 42 60 73 29 31 53 59 53 62 0 4 13 22
30 40 16 19 30 39 30 46 0 7 6 16 13 20 14 9 57 69 57 79 0 4 23 40 50 80 28
41 55 84 61 97 5 12 21 40 34 62 14 22 29 50 35 63 19 43 16 21 -11 -88 -31
-127 -33 -183 -6 -188 25 -5 63 32 90 88 12 25 28 51 35 58 6 7 12 24 12 38 0
13 4 24 8 24 12 0 60 126 68 178 4 23 10 42 15 42 5 0 8 3 7 8 -1 4 4 27 12
52 14 49 30 113 35 145 8 55 18 84 26 79 5 -3 9 -16 9 -28 0 -13 7 -29 16 -36
27 -23 47 10 48 78 1 33 4 58 9 55 4 -2 7 2 8 9 6 138 22 288 30 294 9 5 12
-13 9 -58 -3 -57 43 -188 67 -188 33 0 56 26 87 93 50 110 56 126 56 150 1 19
2 20 10 6 6 -11 6 -28 -1 -48 -14 -41 -6 -61 26 -61 17 0 25 5 25 18 0 10 7
28 16 40 8 12 13 22 10 22 -3 0 4 24 15 53 23 58 27 72 39 139 5 27 11 51 13
55 3 5 8 26 11 48 4 22 13 74 22 115 8 41 17 91 20 110 2 19 9 56 15 81 5 25
9 50 8 55 -5 26 2 47 11 38 10 -10 9 -30 -15 -256 -3 -26 -8 -80 -11 -120 -3
-40 -7 -80 -9 -88 -9 -30 -16 -281 -10 -310 4 -20 13 -30 25 -30 20 0 95 82
95 103 0 7 5 17 10 24 6 7 16 19 23 27 6 8 12 19 12 24 0 4 8 26 19 48 61 128
84 193 63 180 -23 -14 -69 -94 -126 -218 -32 -70 -67 -135 -77 -144 -18 -16
-19 -16 -20 7 -2 41 10 209 16 219 2 3 7 46 10 95 4 50 9 108 11 130 2 22 8
96 13 165 19 261 23 307 30 362 l7 56 -35 14 -36 14 -1 -30 c0 -35 -47 -279
-70 -369 -8 -32 -12 -62 -9 -67 3 -5 -1 -26 -9 -47 -8 -21 -24 -90 -36 -153
-11 -63 -31 -159 -43 -213 -22 -96 -23 -97 -34 -65 -6 18 -17 52 -23 76 -6 23
-15 42 -20 42 -10 0 -14 -13 -30 -105 -11 -66 -63 -222 -80 -239 -29 -29 -57
112 -80 414 -14 181 -26 301 -34 335 -2 11 -5 25 -6 30 -3 20 -20 -51 -25
-105 -14 -154 -17 -251 -20 -535 -3 -304 -14 -422 -30 -310 -3 28 -11 63 -16
79 -5 16 -9 41 -10 55 0 23 -1 24 -9 6 -17 -41 -49 -151 -55 -190 -4 -22 -11
-51 -16 -65 -5 -14 -10 -34 -12 -45 -2 -11 -9 -40 -16 -65 -8 -25 -14 -49 -16
-55 -1 -5 -4 -17 -7 -25 -3 -8 -11 -33 -18 -55 -7 -22 -18 -53 -25 -70 -7 -16
-20 -50 -30 -75 -9 -25 -21 -52 -26 -60 -5 -8 -16 -30 -25 -47 -9 -18 -18 -33
-19 -33 -8 0 -3 105 5 110 5 3 11 21 14 40 2 19 11 60 19 90 19 67 42 181 40
198 0 6 -1 19 -2 28 -2 22 -21 7 -21 -17 0 -10 -4 -27 -10 -37 -5 -9 -32 -65
-60 -124 -27 -59 -75 -147 -106 -195 -76 -118 -176 -267 -184 -273 -3 -3 -21
-26 -38 -51 -29 -43 -119 -119 -141 -119 -5 0 -28 -10 -50 -22 l-41 -22 -30
35 c-16 19 -29 36 -30 39 -1 18 46 74 70 83 17 6 30 19 30 28 0 9 7 30 15 45
35 68 7 97 -108 109 -31 4 -55 11 -52 16 4 5 -2 9 -12 9 -11 0 -28 7 -38 15
-11 9 -43 30 -72 48 -28 18 -69 49 -90 68 -38 34 -83 119 -83 155 0 16 1 16
15 -2 15 -17 15 -16 2 11 -43 89 -58 256 -32 367 9 40 18 80 20 88 10 47 27
100 34 104 4 3 14 27 21 53 8 27 19 53 26 58 14 12 94 123 187 260 38 55 90
131 117 170 26 38 54 87 61 110 7 22 19 47 26 56 8 9 18 29 23 45 4 16 18 53
29 83 11 29 20 56 19 60 -1 3 4 24 10 46 16 60 40 257 34 294 -4 30 6 42 188
222 127 127 196 189 206 185 9 -3 12 -1 9 4 -3 6 -13 10 -21 10 -8 0 -29 15
-47 33 -17 18 -48 39 -67 46 -61 23 -80 34 -80 48 0 7 -9 13 -19 13 -11 0 -23
5 -26 10 -3 6 -14 10 -24 10 -10 0 -30 14 -44 30 -15 17 -36 30 -46 30 -10 0
-24 6 -31 14 -6 8 -18 12 -26 9 -8 -3 -14 0 -14 6 0 6 -6 11 -14 11 -7 0 -21
11 -30 25 -13 20 -22 24 -41 19 -18 -4 -27 -1 -31 10 -3 9 -13 16 -21 16 -16
0 -43 24 -43 38 0 5 -11 13 -25 16 -14 4 -25 11 -25 16 0 6 -8 10 -18 10 -9 0
-34 11 -54 25 -26 18 -50 25 -83 25 -38 0 -51 5 -76 31 -36 37 -35 63 4 67 29
4 185 -65 221 -96 10 -10 19 -16 20 -14 2 4 40 -10 46 -17 3 -4 30 -17 60 -31
30 -14 57 -28 60 -31 3 -3 32 -20 65 -38 33 -17 54 -31 48 -31 -7 0 -13 -5
-13 -11 0 -6 9 -8 21 -4 15 5 19 4 14 -5 -4 -7 -2 -10 6 -8 24 5 131 -53 136
-73 3 -12 11 -18 19 -15 26 10 133 -62 112 -76 -9 -5 -8 -8 5 -8 9 0 17 5 17
11 0 9 4 9 14 0 7 -6 34 -22 60 -36 l46 -24 102 80 c257 202 589 398 907 537
l74 32 -35 28 c-32 24 -35 31 -30 65 4 32 2 37 -16 37 -11 0 -22 5 -24 11 -2
5 -11 7 -21 3 -11 -4 -16 -13 -12 -22 3 -8 0 -21 -6 -28 -6 -7 -8 -17 -5 -22
9 -14 -70 -45 -117 -46 -24 -1 -47 -7 -55 -16 -10 -13 -11 -12 -6 4 5 14 3 17
-12 14 -13 -2 -18 -11 -17 -25 2 -18 -2 -21 -25 -19 -21 3 -26 8 -24 25 2 15
-2 21 -15 21 -13 0 -2 15 36 50 29 28 57 50 60 50 4 0 14 12 23 28 35 59 117
126 150 121 33 -4 48 2 48 20 0 11 5 23 10 26 8 5 8 11 0 20 -24 29 55 134
112 150 33 9 71 27 90 43 10 8 26 12 37 9 10 -2 24 -1 31 3 7 5 31 2 53 -6 49
-17 50 -17 43 1 -3 8 -2 15 2 15 4 0 13 13 20 30 7 16 25 39 39 52 14 13 33
30 43 40 10 9 28 19 40 23 18 6 21 3 18 -12 -2 -10 -12 -17 -21 -17 -13 1 -16
-3 -12 -16 7 -23 -4 -50 -21 -50 -8 0 -14 -10 -14 -26 0 -17 -6 -28 -20 -31
-11 -3 -20 -10 -20 -15 0 -6 7 -8 15 -4 16 6 21 -9 6 -18 -12 -7 -8 -85 5 -94
5 -4 16 -20 24 -37 18 -36 40 -54 57 -48 7 3 13 1 13 -5 0 -5 14 -8 31 -6 22
3 28 0 23 -9 -5 -8 -2 -7 9 2 22 18 22 37 -2 53 -27 19 -41 97 -25 144 7 22
20 65 29 97 21 72 81 172 115 189 14 7 33 20 43 29 20 18 45 21 170 23 51 1
87 5 87 11 -1 56 -153 90 -259 58 -37 -11 -42 -11 -31 2 15 18 3 38 -17 31
-12 -5 -14 -1 -9 16 4 13 7 49 6 81 -1 68 15 127 42 145 10 7 18 25 19 40 1
26 27 75 77 141 l23 31 -2295 0 -2296 0 0 -5120z m6454 5038 c-38 -42 -39 -43
-55 -23 -16 18 -15 21 10 42 14 13 39 23 55 23 l29 0 -39 -42z m130 -24 c24
-9 20 -17 -33 -57 -48 -36 -82 -50 -62 -24 34 41 74 87 76 87 2 0 10 -3 19 -6z
m-134 -158 c0 -3 -4 -8 -10 -11 -5 -3 -10 -1 -10 4 0 6 5 11 10 11 6 0 10 -2
10 -4z m-35 -48 c-3 -10 -8 -27 -11 -38 -3 -11 -9 -20 -14 -20 -4 0 -31 -21
-59 -46 -29 -26 -53 -45 -55 -43 -9 9 15 49 29 49 8 0 15 5 15 10 0 23 64 106
82 106 12 0 16 -6 13 -18z m-175 -198 c-12 -17 -25 -28 -28 -25 -4 3 -2 9 4
13 6 4 17 18 23 30 7 13 15 21 18 18 3 -2 -5 -19 -17 -36z m510 -224 c0 -2 -7
-9 -15 -16 -13 -11 -14 -10 -9 4 5 14 24 23 24 12z m1040 -276 c-8 -5 -10 -10
-5 -10 9 0 -22 -21 -55 -36 -8 -4 -22 -13 -30 -19 -8 -7 -53 -25 -100 -40 -47
-15 -87 -31 -90 -34 -3 -4 -16 -7 -30 -8 -14 0 -57 -12 -95 -26 -72 -25 -87
-31 -140 -60 -16 -9 -45 -24 -64 -33 -89 -41 -240 -190 -241 -236 0 -10 -4
-18 -10 -18 -5 0 -10 -5 -10 -11 0 -5 -14 -39 -31 -74 -30 -62 -33 -105 -15
-185 2 -8 7 -30 11 -47 4 -18 13 -33 19 -33 6 0 4 -5 -4 -10 -9 -6 -11 -13 -5
-17 29 -22 55 -107 58 -188 2 -69 -39 -156 -90 -193 -23 -16 -142 -62 -162
-62 -3 0 4 10 16 23 110 115 118 130 117 227 0 62 -5 86 -31 140 -29 63 -28
85 3 60 23 -20 26 -7 7 31 -9 18 -18 45 -20 59 -9 78 -9 113 -1 166 5 32 10
66 12 76 3 25 75 164 94 182 110 104 143 132 168 140 10 3 30 16 44 29 14 13
39 28 55 35 17 6 58 22 92 37 34 14 100 35 145 46 46 12 90 23 98 25 8 2 33 8
55 14 22 6 51 12 65 14 56 8 117 23 135 34 11 6 27 11 35 12 13 0 13 -1 0 -10z
m211 -102 c0 -24 2 -54 5 -68 2 -14 6 -71 8 -128 5 -100 4 -103 -30 -170 -35
-70 -120 -185 -191 -259 -23 -25 -45 -52 -48 -62 -5 -17 -216 -146 -287 -176
-21 -8 -50 -15 -66 -15 -37 0 -92 -18 -114 -38 -10 -8 -18 -28 -18 -44 0 -24
3 -28 19 -23 10 3 28 2 40 -3 20 -7 9 -17 -94 -83 -64 -41 -123 -80 -130 -86
-8 -7 -17 -13 -21 -13 -4 0 -32 -17 -63 -37 -31 -21 -74 -46 -96 -56 -22 -10
-47 -25 -56 -33 -9 -8 -54 -27 -100 -42 -80 -26 -84 -29 -87 -59 -3 -33 7 -30
-147 -48 -49 -6 -47 -5 74 58 68 36 134 77 148 91 13 14 30 26 38 26 19 0 155
72 155 82 0 4 6 8 14 8 8 0 17 7 20 16 3 8 10 13 15 10 5 -3 20 3 34 14 14 11
28 20 32 20 10 0 126 70 145 87 8 8 24 21 35 29 17 13 15 13 -12 -1 -18 -8
-37 -15 -43 -15 -16 0 -97 -38 -145 -68 -30 -19 -36 -20 -23 -6 9 10 20 33 23
49 9 38 53 115 65 115 5 0 12 10 15 23 6 19 81 87 98 87 4 0 24 17 45 38 58
58 152 127 207 151 20 9 41 26 108 86 94 84 114 105 147 153 19 28 38 48 42
46 23 -15 -110 -243 -184 -315 -26 -26 -48 -54 -48 -63 0 -8 -11 -18 -24 -22
-14 -3 -27 -12 -30 -20 -3 -8 -26 -24 -51 -35 -50 -22 -61 -43 -17 -33 39 10
151 64 192 93 43 31 210 197 210 209 0 5 11 19 24 31 29 28 76 119 76 149 0
11 4 23 9 26 4 3 9 59 10 123 2 134 4 147 20 188 27 67 51 72 52 13z m1204 33
c-6 -5 -59 -35 -120 -66 -318 -166 -378 -199 -595 -326 -100 -58 -144 -83
-210 -119 -30 -17 -62 -35 -70 -40 -27 -18 -262 -161 -370 -226 -89 -53 -118
-65 -189 -78 -52 -10 -104 -27 -138 -46 -30 -17 -60 -29 -66 -27 -6 2 36 26
93 54 58 28 146 77 195 107 101 63 128 76 156 76 10 0 19 4 19 9 0 13 101 81
191 128 41 22 121 68 179 102 57 35 163 92 235 128 71 36 135 68 140 73 23 18
183 99 187 94 3 -2 83 34 179 81 161 79 207 98 184 76z m-2610 -200 c178 -54
185 -57 185 -81 0 -11 -4 -20 -8 -20 -11 0 -42 -66 -42 -90 0 -10 -4 -21 -9
-24 -17 -11 -46 -121 -45 -171 2 -78 20 -208 31 -230 6 -11 15 -31 21 -45 5
-14 18 -43 27 -65 10 -21 19 -63 21 -91 2 -44 -1 -59 -25 -92 -16 -21 -43 -49
-60 -63 -17 -13 -44 -34 -60 -46 -16 -13 -33 -23 -37 -24 -25 -1 -189 -128
-204 -156 -38 -72 -70 -81 -126 -38 -40 31 -85 32 -131 4 -25 -16 -48 -21 -86
-20 -76 3 -78 4 -74 10 2 3 11 24 20 46 10 22 22 47 27 55 6 8 15 26 21 40 6
14 15 33 20 42 4 9 5 18 1 20 -4 2 -28 30 -54 63 l-47 60 4 70 c2 38 8 71 14
73 5 2 8 9 5 16 -7 17 80 122 115 140 44 23 125 30 176 16 25 -7 48 -10 51 -7
7 7 -55 37 -78 37 -34 0 -83 27 -97 53 -12 23 -46 41 -94 51 -7 2 -20 7 -31
11 -11 5 -26 3 -37 -3 -10 -7 -26 -12 -34 -12 -17 0 -51 -18 -73 -37 -7 -7
-18 -16 -25 -20 -7 -5 -20 -18 -30 -30 -33 -38 -40 -157 -13 -198 9 -14 14
-25 11 -25 -3 0 -1 -8 4 -19 8 -14 5 -21 -14 -31 -14 -7 -32 -24 -40 -37 -9
-14 -25 -23 -40 -23 -28 0 -32 14 -10 36 13 14 23 90 15 119 -2 6 -3 19 -4 31
-1 11 -6 27 -13 35 -6 8 -9 30 -7 49 2 19 6 47 7 62 2 15 16 37 30 49 15 11
27 28 27 37 0 23 32 41 85 49 31 4 46 11 50 24 4 11 18 22 33 25 15 4 48 17
74 30 26 13 56 24 68 24 24 0 92 63 114 107 9 18 27 44 41 59 14 15 25 31 25
35 0 5 6 9 13 9 17 0 102 89 103 108 3 57 2 55 42 48 20 -3 96 -23 167 -45z
m-5023 -67 c5 -16 16 -43 25 -61 25 -51 12 -67 -50 -60 -67 8 -91 33 -74 78
13 34 63 82 80 76 6 -2 15 -16 19 -33z m6139 -92 c-8 -15 -129 -132 -174 -169
-23 -19 -157 -103 -163 -103 -3 0 -19 -9 -35 -21 -16 -11 -29 -16 -29 -10 0 6
4 11 9 11 5 0 24 15 42 33 31 31 47 42 125 82 22 10 45 25 51 31 7 7 27 21 45
33 18 11 56 45 83 75 55 60 60 65 46 38z m-6021 -54 c-28 -65 -34 -113 -20
-163 7 -25 17 -45 21 -45 5 0 9 -6 9 -13 0 -7 24 -25 53 -40 35 -18 63 -43 87
-77 19 -27 68 -85 108 -127 39 -43 72 -80 72 -84 0 -3 11 -19 25 -35 39 -44
40 -45 76 -114 19 -36 37 -67 40 -70 10 -10 42 -122 45 -164 6 -85 4 -172 -7
-211 -6 -22 -12 -47 -13 -55 -2 -8 -8 -26 -13 -40 -6 -14 -19 -45 -28 -70 -56
-144 -228 -445 -290 -507 -8 -8 -15 -19 -15 -24 0 -5 -9 -19 -20 -31 -28 -30
-100 -137 -100 -148 0 -6 -4 -10 -10 -10 -5 0 -10 -7 -10 -15 0 -8 -4 -15 -8
-15 -15 0 -100 -185 -122 -264 -21 -74 -28 -175 -15 -196 3 -5 8 -35 11 -66 2
-31 8 -62 11 -68 4 -6 8 -54 9 -106 2 -59 8 -109 18 -131 8 -20 12 -39 9 -43
-4 -3 -1 -6 5 -6 6 0 14 -9 17 -20 4 -11 17 -32 31 -48 13 -15 45 -50 70 -79
26 -29 55 -55 65 -58 10 -4 19 -15 19 -25 0 -35 12 -50 39 -50 15 0 35 -6 46
-14 11 -7 35 -17 53 -21 37 -8 39 -12 15 -31 -17 -13 -17 -15 3 -31 16 -13 20
-23 14 -38 -13 -30 -11 -93 2 -97 6 -2 -17 -25 -52 -50 -35 -25 -70 -44 -77
-41 -7 3 -11 9 -8 14 3 4 -6 16 -20 25 -19 12 -25 25 -25 50 0 22 5 34 14 34
7 0 19 14 27 31 12 30 11 33 -17 55 -16 13 -40 28 -54 34 -14 6 -33 24 -42 40
-9 17 -38 42 -64 57 -26 16 -69 43 -95 61 -27 17 -51 32 -55 32 -8 0 -73 68
-106 111 -37 50 -78 138 -77 168 0 14 0 69 -1 121 0 58 5 117 15 153 8 32 15
66 15 76 0 10 7 24 15 31 8 7 15 21 15 31 0 11 4 27 8 37 52 106 79 155 89
159 7 3 11 9 8 13 -3 4 2 14 11 21 8 7 21 27 29 46 8 18 21 36 30 39 8 3 15
11 15 16 0 14 69 105 111 147 20 20 60 65 90 101 29 36 56 67 59 70 12 9 117
155 133 185 120 222 151 331 151 525 0 153 -11 221 -57 335 -65 164 -152 276
-252 324 -27 14 -52 27 -55 30 -9 11 -60 31 -79 31 -9 0 -26 8 -37 18 -11 9
-33 24 -49 32 -20 10 -31 24 -32 40 -1 28 16 110 27 125 4 6 11 25 15 43 3 17
11 32 16 32 5 0 9 4 9 9 0 19 42 81 55 81 11 0 10 -9 -5 -42z m5572 -54 l111
-56 -40 -26 c-77 -53 -143 -144 -143 -198 0 -30 -2 -32 -52 -38 -58 -8 -94
-24 -122 -55 -23 -25 -38 -18 -30 14 3 13 0 34 -7 47 -8 12 -14 32 -15 43 0
11 -4 40 -8 65 -7 39 -4 50 18 83 14 21 26 44 26 51 0 8 7 19 15 26 8 7 15 18
15 25 0 7 13 18 30 25 16 7 32 21 35 31 10 31 48 23 167 -37z m-1502 1 c-13
-14 -28 -25 -33 -25 -5 0 -31 -23 -58 -51 -26 -28 -53 -48 -59 -44 -5 3 -15
-6 -20 -20 -5 -14 -14 -23 -20 -20 -5 3 -10 -1 -10 -11 0 -9 -17 -36 -37 -58
-64 -71 -93 -106 -93 -111 0 -3 0 -10 0 -16 0 -5 -4 -7 -10 -4 -5 3 -7 0 -4
-8 3 -8 1 -18 -5 -22 -6 -3 -11 -15 -11 -26 0 -16 -5 -19 -22 -14 -22 6 -22 6
-4 -9 15 -12 16 -16 5 -17 -8 0 -9 -2 -4 -5 18 -7 5 -103 -15 -114 -23 -12
-33 9 -25 54 3 17 7 42 9 56 6 36 17 60 27 60 4 0 6 6 4 13 -6 15 49 100 102
158 102 111 272 257 302 259 3 0 -6 -11 -19 -25z m-500 -257 c-46 -131 -64
-155 -72 -98 -3 18 0 31 8 34 8 3 16 18 20 33 5 22 49 83 60 83 1 0 -6 -24
-16 -52z m2848 -140 c18 -18 15 -49 -8 -86 -11 -18 -20 -41 -20 -51 0 -10 -3
-21 -7 -25 -8 -8 -9 -13 -11 -68 -2 -42 -35 -86 -88 -117 l-36 -22 6 26 c4 14
2 25 -4 25 -5 0 -10 -6 -10 -13 0 -8 -12 -24 -26 -38 -28 -26 -76 -93 -87
-121 -10 -28 -24 -21 -25 11 0 17 -5 39 -11 50 -6 11 -11 29 -11 40 0 12 -5
21 -11 21 -5 0 -7 5 -4 10 4 6 2 16 -3 23 -11 12 -12 17 -12 40 0 15 -13 32
-98 125 -31 34 -62 62 -68 62 -19 0 -24 28 -7 35 9 3 66 8 127 12 61 3 116 10
122 15 7 5 29 11 50 13 20 3 62 12 93 19 106 27 133 30 149 14z m-2551 -105
c1 -21 4 -47 5 -57 2 -10 -2 -21 -8 -23 -7 -2 -12 6 -13 19 0 13 -4 46 -7 73
-5 41 -4 48 7 38 7 -7 14 -30 16 -50z m3254 5 c4 -22 1 -253 -3 -290 -1 -10
-6 -18 -10 -18 -4 0 -8 -12 -8 -26 0 -41 -50 -154 -94 -214 -62 -84 -81 -104
-220 -226 l-128 -114 -54 0 c-112 0 -221 -59 -341 -182 -67 -69 -124 -157
-118 -182 7 -33 18 -66 22 -66 10 0 53 45 53 56 0 6 18 17 40 24 22 7 40 17
40 22 0 4 5 8 10 8 6 0 1 -18 -10 -40 -11 -21 -20 -52 -20 -68 0 -27 -2 -29
-97 -50 -54 -13 -123 -26 -153 -31 -90 -15 -136 -39 -191 -100 -82 -90 -111
-177 -82 -243 9 -21 22 -38 29 -38 6 0 17 -6 23 -14 14 -17 149 -40 192 -33
78 14 105 20 114 28 6 4 44 20 85 35 61 22 95 28 177 30 93 2 104 1 117 -17 9
-14 11 -31 6 -52 -10 -48 -23 -67 -77 -118 -60 -59 -127 -142 -115 -144 13 -1
-57 -113 -95 -153 -7 -7 -15 -25 -19 -40 -3 -15 -10 -35 -16 -46 -7 -14 -6
-21 4 -27 11 -7 11 -9 -1 -9 -7 0 -11 -6 -7 -15 3 -9 -10 -33 -33 -59 -21 -24
-59 -75 -84 -112 -53 -79 -116 -148 -126 -138 -3 4 0 9 6 11 7 3 20 20 29 39
13 27 14 37 4 49 -17 21 -32 19 -93 -10 -44 -21 -48 -22 -28 -5 31 26 21 36
-21 21 -29 -10 -26 -6 35 56 37 38 78 84 91 103 14 19 29 40 34 45 12 16 50
100 58 129 3 14 9 26 13 26 5 0 14 24 21 54 11 47 11 59 -3 88 -9 18 -27 44
-41 57 -19 18 -23 30 -19 55 14 88 -117 109 -277 43 -14 -5 -34 -12 -45 -14
-27 -5 -105 -52 -105 -63 0 -6 -4 -10 -10 -10 -13 0 -42 -24 -101 -82 -27 -27
-53 -48 -58 -48 -17 0 -64 78 -68 113 -8 64 -8 127 0 127 4 0 7 6 7 13 0 6 9
23 20 37 11 14 20 33 20 43 0 10 6 20 14 23 8 3 17 16 20 30 4 13 12 24 20 24
7 0 19 11 26 25 7 14 16 25 19 25 4 0 20 12 37 28 149 134 193 172 200 172 3
0 20 10 37 23 38 26 52 35 105 64 22 13 43 27 47 32 3 6 33 24 65 42 33 17 60
35 60 40 0 8 71 87 131 148 108 107 139 129 289 203 85 42 165 86 177 97 12
12 26 21 31 21 11 0 171 166 208 215 16 22 32 42 35 45 3 3 21 34 40 70 19 36
37 67 42 68 4 2 7 11 7 20 0 10 12 49 26 87 14 39 29 84 33 100 5 17 13 40 19
51 6 12 9 24 6 27 -9 8 6 127 16 127 4 0 9 -10 11 -22z m-3438 -105 c-4 -9 -2
-14 3 -10 6 3 16 -10 23 -29 7 -19 18 -33 24 -31 7 2 30 -5 51 -16 22 -10 56
-25 75 -33 l36 -13 -48 1 c-27 1 -50 5 -53 10 -3 4 -12 8 -21 8 -25 0 -100 67
-105 94 -5 26 -1 36 13 36 5 0 5 -7 2 -17z m2984 -197 c117 -118 213 -219 213
-223 0 -17 -102 -124 -177 -185 -67 -54 -222 -144 -283 -163 -31 -10 -139 -73
-175 -103 -16 -13 -91 -83 -166 -156 -108 -105 -151 -139 -212 -170 -42 -21
-105 -59 -141 -85 -35 -25 -90 -62 -121 -81 -31 -19 -96 -73 -144 -120 -116
-113 -164 -185 -191 -287 -12 -47 -12 -171 1 -179 4 -2 6 -11 3 -19 -3 -7 3
-18 13 -23 10 -6 19 -20 20 -31 2 -28 58 -78 93 -83 31 -5 67 6 90 27 8 8 31
28 50 45 19 17 51 47 72 66 34 33 109 73 136 74 21 0 52 -39 52 -66 0 -41 -38
-109 -105 -188 -90 -105 -136 -172 -141 -203 -7 -43 -37 -63 -82 -55 -20 4
-66 7 -102 7 -82 -1 -163 -38 -237 -108 -58 -55 -70 -52 -23 5 l30 36 -25 43
c-13 24 -40 59 -60 78 -50 47 -68 87 -67 151 0 30 -4 57 -8 60 -5 3 -4 25 1
50 5 25 11 54 13 65 3 11 7 43 11 70 3 28 10 59 15 70 5 11 21 54 37 95 30 81
66 141 107 179 24 23 36 49 17 37 -5 -3 -14 0 -19 7 -8 10 0 21 33 47 25 19
77 65 117 103 39 37 75 67 79 67 4 0 58 51 121 114 101 102 204 186 229 186 5
0 9 5 9 10 0 6 29 24 64 39 51 23 65 35 70 57 5 17 3 30 -3 32 -6 2 -1 13 10
25 11 12 28 36 36 52 9 17 19 32 22 35 4 3 26 37 51 75 42 68 84 115 101 115
13 0 69 61 69 74 0 6 27 32 59 58 32 27 64 61 71 78 7 16 17 30 22 30 5 0 18
20 28 44 11 24 27 49 35 56 8 7 15 16 15 21 0 4 14 28 30 53 l30 44 -18 49
c-9 26 -17 55 -16 63 1 8 2 23 3 33 0 9 7 17 13 17 7 0 108 -96 225 -214z
m-3142 117 c3 -32 -15 -82 -37 -101 -16 -13 -108 -6 -108 8 0 4 21 13 46 19
42 11 48 16 67 61 23 54 27 56 32 13z m488 -143 c4 -14 2 -32 -3 -40 -8 -12
-10 -10 -10 10 0 14 -3 36 -6 50 -5 17 -3 22 3 15 6 -5 13 -21 16 -35z m224
-183 c23 -15 63 -28 96 -32 54 -7 56 -8 54 -34 -2 -15 -7 -32 -11 -39 -13 -22
-79 -13 -135 18 -49 27 -56 29 -71 15 -9 -8 -22 -15 -28 -15 -7 0 -12 -4 -12
-8 0 -5 -11 -21 -24 -36 -19 -23 -22 -34 -16 -67 4 -21 4 -39 -1 -39 -9 0 -39
-57 -39 -75 0 -7 -8 -19 -18 -28 -17 -16 -19 -16 -32 7 -7 14 -10 38 -7 54 3
16 3 32 0 36 -8 8 -7 87 3 111 4 11 23 40 41 64 18 24 33 50 33 57 0 7 14 24
31 38 28 24 32 25 63 12 18 -7 50 -25 73 -39z m780 7 c-3 -3 -12 -4 -19 -1 -8
3 -5 6 6 6 11 1 17 -2 13 -5z m126 -6 c31 -15 46 -46 54 -110 6 -46 5 -47 -31
-64 -20 -10 -36 -21 -36 -26 0 -4 -14 -23 -31 -43 -44 -49 -86 -65 -162 -60
-46 3 -73 -1 -105 -15 -23 -10 -42 -22 -42 -25 0 -3 7 -19 16 -36 8 -17 12
-39 9 -50 -19 -58 -12 -104 13 -94 32 12 82 -66 82 -129 l0 -31 -35 40 c-19
22 -32 46 -30 53 3 6 8 19 12 29 6 14 0 15 -55 10 -51 -6 -62 -4 -62 8 0 8 -3
15 -7 15 -5 0 -8 65 -8 145 0 80 3 145 8 145 11 0 47 62 40 72 -6 11 -79 2
-110 -14 -22 -11 -43 -55 -43 -89 0 -10 11 -29 25 -43 14 -14 25 -29 25 -34 0
-6 7 -12 15 -15 11 -5 13 -19 9 -64 -8 -87 -8 -106 0 -131 7 -22 5 -23 -26
-20 -44 4 -64 46 -73 153 -4 44 -16 105 -26 135 -13 35 -17 56 -10 58 14 5 14
37 2 61 -14 25 -3 59 20 63 29 4 24 22 -6 26 -36 5 -74 -22 -91 -64 -13 -30
-13 -38 2 -66 15 -30 15 -32 -2 -45 -10 -7 -23 -13 -30 -13 -15 0 -48 -45 -59
-80 -4 -14 -21 -44 -36 -67 -33 -47 -35 -72 -14 -132 9 -28 11 -41 3 -41 -6 0
-3 -9 6 -19 14 -15 15 -24 7 -39 -6 -11 -7 -22 -4 -26 3 -3 -2 -6 -12 -6 -10
0 -16 -3 -12 -6 7 -8 -17 -34 -32 -34 -5 0 -12 21 -16 48 -3 26 -10 67 -17 92
-21 85 -16 130 20 183 18 26 36 63 39 83 3 19 10 37 14 40 5 3 9 14 9 25 0 11
10 23 24 29 18 6 27 20 32 46 5 26 15 41 35 53 31 17 39 57 17 79 -19 19 39
15 97 -7 44 -17 69 -19 210 -14 153 5 219 8 258 11 9 1 17 9 17 17 0 14 44 44
66 45 5 0 22 -6 37 -12z m-1906 -235 c3 -7 -3 -9 -16 -6 -12 3 -21 10 -21 15
0 13 32 6 37 -9z m-2886 -20 c-14 -47 -90 -235 -119 -291 -15 -30 -47 -77 -72
-106 -25 -29 -67 -78 -93 -109 -26 -31 -57 -62 -69 -68 -37 -20 121 258 275
484 44 64 81 117 83 117 1 0 -1 -12 -5 -27z m5359 -28 c30 0 73 3 94 7 36 7
31 2 -55 -53 -90 -59 -134 -95 -134 -111 0 -4 -10 -15 -22 -23 -17 -12 -28
-13 -42 -5 -28 14 -91 94 -91 114 0 9 -4 16 -8 16 -4 0 -8 16 -9 35 l-1 34
107 -7 c58 -4 131 -7 161 -7z m-3883 -47 c-3 -8 -6 -5 -6 6 -1 11 2 17 5 13 3
-3 4 -12 1 -19z m3143 -67 c3 -1 5 -49 5 -108 1 -96 0 -103 -12 -75 -7 18 -35
48 -63 68 -48 34 -63 65 -40 79 6 3 10 15 10 26 0 20 18 21 100 10z m-520 -75
c0 -14 -12 -39 -27 -56 -24 -29 -28 -31 -34 -14 -4 11 -8 23 -8 27 -1 7 59 67
66 67 2 0 3 -11 3 -24z m277 -174 c12 -7 42 -12 67 -12 25 0 46 -4 46 -10 0
-5 11 -12 25 -16 20 -5 23 -10 15 -24 -7 -13 -4 -20 15 -30 37 -20 87 3 85 39
-1 14 -2 37 -1 51 2 24 2 24 13 5 6 -11 14 -22 18 -25 33 -24 -3 -96 -86 -173
-35 -31 -78 -85 -97 -120 -28 -48 -37 -58 -42 -44 -4 9 -13 17 -21 17 -18 0
-124 106 -145 146 -9 16 -21 51 -28 77 -10 43 -9 53 10 96 l22 47 41 -6 c23
-3 51 -12 63 -18z m-541 -187 c-33 -60 -55 -96 -119 -189 l-28 -41 6 40 c3 22
7 55 10 74 9 72 28 129 42 124 8 -3 13 2 13 14 0 11 9 28 20 38 11 10 34 41
52 69 l33 51 3 -58 c3 -51 -1 -67 -32 -122z m947 27 c15 -6 27 -16 27 -22 0
-5 7 -10 15 -10 32 0 -18 -48 -53 -52 -40 -5 -45 2 -49 71 -3 50 -2 53 15 39
9 -8 29 -19 45 -26z m-494 -337 c12 -3 21 -10 21 -15 0 -4 8 -10 18 -13 9 -3
42 -15 72 -26 78 -30 171 -36 246 -17 34 9 69 16 78 16 27 0 7 -24 -37 -45
-51 -23 -227 -29 -248 -7 -7 6 -22 12 -33 12 -12 0 -36 9 -55 21 -19 11 -43
22 -53 24 -31 6 -168 129 -168 151 0 4 -6 15 -14 23 -7 9 -17 27 -21 41 -5 17
20 -4 83 -67 50 -50 100 -94 111 -98z m-3279 154 c0 -11 -4 -18 -10 -14 -5 3
-7 12 -3 20 7 21 13 19 13 -6z m2770 -33 c0 -2 -8 -10 -17 -17 -16 -13 -17
-12 -4 4 13 16 21 21 21 13z m285 -51 c4 -11 9 -26 11 -33 1 -8 10 -22 20 -33
9 -10 13 -19 8 -19 -5 0 2 -7 14 -16 12 -8 22 -24 22 -35 0 -10 5 -19 10 -19
6 0 14 -8 17 -17 4 -10 24 -33 45 -52 21 -18 38 -40 38 -48 0 -8 4 -12 9 -8 5
3 13 0 16 -5 4 -6 18 -15 31 -20 13 -5 24 -15 24 -23 0 -7 11 -14 25 -15 14
-1 44 -11 66 -23 38 -19 42 -19 66 -4 17 12 36 15 59 10 57 -10 39 -55 -26
-64 l-42 -6 -2 -48 c-1 -27 -8 -52 -15 -56 -9 -6 -10 -11 -3 -15 8 -4 8 -16 0
-36 -5 -17 -8 -46 -6 -65 3 -24 0 -35 -9 -35 -29 0 -25 60 16 223 8 35 7 39
-16 48 -13 5 -31 9 -39 9 -23 0 -71 28 -77 45 -4 8 -16 15 -27 15 -11 0 -20 5
-20 10 0 6 -8 14 -17 17 -32 12 -83 55 -83 70 0 9 -14 31 -30 50 -33 37 -100
168 -100 195 0 9 -4 20 -10 23 -5 3 -10 11 -10 16 0 14 24 -11 35 -36z m1493
0 c7 -14 19 -28 27 -31 8 -4 15 -13 15 -21 0 -8 6 -13 13 -10 6 2 28 -7 47
-20 19 -13 61 -29 92 -35 31 -6 55 -15 52 -20 -7 -11 -86 -45 -120 -52 -108
-21 -141 -16 -176 28 -24 29 -23 104 2 136 11 14 20 31 20 38 0 21 16 13 28
-13z m-2838 -187 c0 -13 58 -58 74 -58 4 0 19 -9 33 -20 31 -24 20 -25 -37 -5
-23 8 -51 15 -62 15 -25 0 -59 31 -40 38 6 2 12 12 12 23 0 10 5 19 10 19 6 0
10 -6 10 -12z m842 -170 c-22 -41 -45 -83 -50 -94 -15 -27 -62 -133 -62 -142
-1 -4 -15 -16 -33 -27 -21 -13 -37 -35 -48 -65 -32 -89 -41 -110 -49 -110 -4
0 -18 16 -31 35 -13 19 -27 35 -31 35 -5 0 -8 6 -8 13 0 6 -9 23 -20 37 -20
27 -12 50 19 50 41 1 130 56 182 115 79 87 100 115 109 140 5 17 9 32 7 35 -2
6 46 59 51 55 2 -1 -15 -36 -36 -77z m-566 34 c-21 -2 -42 0 -47 5 -4 4 13 6
39 3 l47 -5 -39 -3z m1481 -29 c-3 -10 -5 -4 -5 12 0 17 2 24 5 18 2 -7 2 -21
0 -30z m-2194 15 c-6 -7 -18 -35 -28 -63 -11 -27 -29 -63 -42 -78 -13 -16 -23
-33 -23 -38 0 -21 -108 5 -118 29 -4 13 59 81 76 82 4 1 36 19 72 40 71 43 77
46 63 28z m3308 -31 c1 -7 1 -18 -1 -26 -4 -34 11 -60 40 -66 17 -4 28 -11 24
-16 -3 -5 0 -9 5 -9 28 0 3 -112 -50 -228 -29 -61 -98 -176 -83 -137 43 116
56 169 60 255 3 56 1 101 -5 110 -14 20 -18 13 -25 -50 -17 -149 -82 -290
-183 -392 -38 -40 -50 -47 -72 -42 -63 14 -60 11 -40 51 11 21 19 47 19 58 0
12 12 32 26 46 14 13 30 33 35 44 16 33 33 59 65 100 38 50 70 118 78 171 6
35 4 45 -18 71 l-26 31 48 19 c54 23 101 27 103 10z m-2746 -137 c3 -11 22
-32 41 -46 37 -29 46 -64 15 -64 -10 0 -34 -7 -53 -14 l-35 -15 -11 36 c-6 21
-7 42 -2 52 5 9 11 28 15 44 6 32 21 35 30 7z m1404 -110 c29 -5 65 -19 79
-30 87 -67 107 -80 125 -80 17 0 18 2 6 16 -11 14 -10 16 6 13 11 -1 29 2 39
6 13 6 21 4 24 -3 2 -7 8 -12 13 -12 6 0 7 5 4 10 -3 6 -1 10 4 10 6 0 11 -9
11 -20 0 -11 -7 -20 -15 -20 -8 0 -15 -7 -15 -15 0 -8 -8 -18 -17 -23 -30 -14
-63 -6 -96 25 -74 69 -205 91 -402 68 -65 -8 -281 -82 -342 -117 -71 -41 -198
-146 -253 -208 -92 -105 -121 -130 -149 -129 -25 1 -25 1 4 10 20 6 46 31 79
77 67 90 107 133 119 125 6 -3 7 -1 4 5 -8 12 75 89 147 137 104 68 265 125
446 158 47 8 127 7 179 -3z m-1329 -122 c0 -7 3 -22 6 -33 5 -19 1 -20 -34
-17 -30 3 -42 10 -50 27 -10 22 -9 24 21 28 18 2 38 5 45 5 6 1 12 -4 12 -10z
m-652 -93 c27 -27 58 -57 68 -66 61 -52 122 -69 161 -44 21 14 23 14 29 -10 3
-14 19 -36 34 -48 l28 -24 -79 -35 -78 -36 -78 54 c-97 66 -146 114 -184 182
l-30 53 32 30 c30 28 34 29 40 12 4 -10 30 -40 57 -68z m2282 29 c25 -39 17
-61 -19 -49 -25 8 -38 50 -21 70 16 20 15 20 40 -21z m-1976 -96 c-4 -6 0 -16
8 -22 8 -6 17 -20 21 -31 5 -12 -4 -7 -23 15 -34 40 -37 50 -14 50 9 0 12 -5
8 -12z m420 -35 c21 -56 70 -123 90 -123 18 0 47 -39 50 -66 2 -13 6 -27 10
-32 4 -4 7 -2 6 3 -6 27 2 45 18 45 20 -1 59 -28 54 -38 -2 -4 13 -11 33 -16
27 -7 34 -14 29 -25 -3 -9 -9 -47 -11 -86 -3 -38 -9 -75 -14 -80 -4 -6 -12
-23 -18 -37 -13 -35 9 -61 44 -52 23 6 85 -22 85 -37 0 -4 9 -9 20 -12 39 -10
20 -27 -32 -28 -152 -4 -212 -9 -241 -18 -18 -5 -57 -15 -87 -20 -349 -65
-663 -169 -954 -316 -132 -66 -136 -69 -136 -77 0 -5 -7 -8 -15 -8 -23 0 -95
-75 -95 -99 0 -12 -11 -37 -25 -55 -14 -18 -25 -37 -25 -43 0 -5 -11 -16 -25
-23 -14 -7 -25 -17 -25 -21 0 -5 -30 -17 -66 -29 -77 -23 -143 -57 -162 -83
-7 -9 -28 -24 -45 -33 -39 -20 -107 -90 -107 -110 0 -8 -6 -17 -13 -20 -10 -3
-12 -29 -11 -97 3 -112 6 -126 40 -252 35 -132 42 -141 124 -175 14 -5 47 -26
73 -45 26 -19 54 -32 62 -28 9 3 26 -2 40 -11 14 -9 29 -14 34 -11 5 2 22 -2
37 -10 16 -8 55 -15 86 -15 31 0 59 -4 62 -9 3 -5 25 -9 48 -9 24 -1 44 -6 46
-11 2 -6 10 -11 17 -11 7 0 27 -11 43 -25 17 -14 40 -25 51 -25 37 0 78 -28
89 -60 6 -16 18 -30 26 -30 9 0 16 -4 16 -9 0 -6 11 -22 24 -36 19 -20 30 -25
47 -20 19 6 21 4 16 -14 -4 -15 1 -24 16 -32 30 -16 89 -83 76 -87 -5 -2 -40
3 -77 11 -61 14 -273 26 -572 31 -100 2 -153 13 -260 53 -98 37 -169 74 -202
105 -17 16 -36 28 -43 28 -6 0 -20 9 -30 20 -10 11 -23 20 -30 20 -6 0 -18 11
-25 25 -7 14 -20 25 -27 25 -7 0 -16 8 -20 18 -3 9 -28 47 -55 84 -26 37 -48
74 -48 82 0 7 -6 18 -13 24 -15 13 -22 66 -21 167 1 85 5 112 26 145 8 14 21
46 28 73 11 42 11 49 -5 67 -10 11 -25 20 -33 20 -9 0 -24 8 -34 17 -11 10
-42 18 -76 21 -33 3 -60 10 -65 18 -4 8 -22 14 -40 14 -26 1 -37 8 -59 41 -16
21 -28 43 -28 48 0 14 69 71 86 71 8 0 31 16 51 36 34 35 35 38 30 91 -3 30
-11 61 -17 68 -8 9 -10 31 -6 57 4 24 7 50 9 59 3 22 108 108 187 153 95 54
261 136 276 136 6 0 14 7 18 15 3 8 18 15 33 15 15 1 39 7 53 15 14 8 33 14
43 15 10 0 42 11 72 25 29 13 75 27 102 30 43 5 85 14 208 47 22 6 52 19 67
29 14 11 31 19 37 19 5 0 21 12 35 26 21 23 34 27 96 30 39 2 85 11 101 20 27
13 30 20 26 49 -2 18 -7 38 -11 44 -4 5 -1 19 5 29 12 18 14 18 68 -9 31 -15
67 -31 80 -34 38 -11 21 16 -32 50 -50 33 -58 45 -28 45 11 0 22 4 25 8 2 4
19 9 37 10 18 1 46 9 63 16 52 23 61 24 80 10 11 -7 23 -11 28 -8 6 4 20 2 31
-4 37 -18 119 -43 125 -37 3 2 -12 12 -34 20 -21 9 -57 24 -79 34 l-40 18 34
21 c18 11 39 18 45 16 7 -3 21 4 31 16 11 12 31 20 51 20 18 0 35 4 38 9 3 4
32 18 65 31 33 12 62 28 65 36 3 8 12 14 21 14 8 0 34 14 57 30 47 34 63 37
72 13z m-3703 -20 c16 -16 29 -33 29 -39 0 -6 11 -17 25 -24 13 -7 22 -17 19
-22 -3 -4 1 -8 9 -8 8 0 32 -15 53 -34 21 -19 50 -37 64 -40 14 -3 48 -26 75
-51 28 -26 60 -51 73 -56 28 -11 72 5 72 26 0 18 1 18 35 5 33 -13 25 -27 -25
-40 -27 -7 -42 -19 -51 -39 -7 -15 -22 -32 -33 -37 -29 -12 -32 -49 -7 -71 12
-9 21 -21 21 -26 0 -5 25 -32 56 -60 84 -77 84 -83 0 -135 -39 -25 -83 -53
-98 -63 -15 -11 -34 -19 -42 -19 -8 0 -16 -3 -18 -7 -1 -5 -50 -32 -108 -62
-140 -72 -213 -112 -224 -122 -17 -15 -26 -10 -26 16 0 25 22 70 69 140 15 22
43 67 61 100 19 33 43 74 56 90 12 17 31 56 43 88 19 52 19 57 3 48 -22 -12
-90 -77 -171 -166 l-64 -70 6 180 c5 154 37 474 52 513 6 18 13 15 46 -15z
m2756 -63 c7 0 33 -9 58 -21 24 -11 49 -18 55 -14 6 4 16 3 23 -2 19 -15 99
-42 145 -49 50 -8 53 -18 10 -35 -18 -7 -36 -14 -39 -16 -4 -2 -6 4 -5 14 2
27 -33 27 -88 -1 l-49 -25 -45 22 c-39 18 -182 143 -182 160 0 3 24 -3 52 -14
29 -10 58 -19 65 -19z m3148 -16 c33 -2 83 -7 110 -10 69 -10 102 -7 127 11
29 20 49 19 23 -1 -26 -20 -172 -94 -207 -104 -19 -6 -30 -4 -39 7 -25 29 -70
44 -137 44 -94 1 -94 1 -164 -27 -72 -28 -68 -27 -68 -11 0 16 98 87 121 87
10 0 21 5 25 11 5 8 29 9 78 4 39 -4 98 -9 131 -11z m-3893 -54 c-13 -11 -49
-27 -80 -37 -63 -20 -113 -65 -227 -203 -74 -91 -295 -319 -352 -364 -33 -27
-35 -27 -68 -12 -50 24 -82 20 -174 -25 l-84 -40 -23 22 c-13 12 -24 27 -24
33 0 7 -16 35 -35 65 -19 29 -35 57 -35 62 0 5 -5 9 -11 9 -8 0 -8 5 1 15 7 8
20 15 29 15 9 0 21 4 26 8 22 19 150 48 252 56 22 2 45 6 51 10 5 3 52 6 103
7 140 2 145 8 39 53 -81 35 -120 60 -109 70 20 19 135 77 224 113 61 24 119
48 130 52 42 18 70 28 80 31 6 1 18 7 29 12 10 6 31 12 45 13 14 2 53 10 86
19 51 13 128 31 145 34 3 1 -5 -7 -18 -18z m3225 -20 c51 -7 93 -25 93 -42 0
-2 -69 -4 -152 -4 -226 -2 -285 -8 -407 -41 -29 -8 -55 -12 -57 -10 -6 6 165
61 256 82 41 10 86 21 100 26 14 5 43 6 65 3 22 -3 68 -9 102 -14z m1043 16
c0 -3 -25 -21 -55 -41 -30 -21 -55 -41 -55 -46 0 -5 -4 -9 -9 -9 -13 0 -107
-97 -141 -146 -37 -53 -81 -66 -240 -69 -134 -3 -240 12 -425 59 -95 24 -120
26 -99 7 9 -8 201 -81 264 -99 82 -25 162 -42 169 -37 5 2 21 -2 37 -9 19 -9
60 -13 121 -12 81 1 90 -1 78 -14 -7 -8 -18 -34 -24 -57 -13 -46 -9 -45 -106
-48 -23 -1 -78 13 -132 32 -80 30 -111 44 -198 91 -11 6 -35 16 -52 22 -18 7
-33 16 -33 21 0 5 -6 9 -13 9 -7 0 -35 11 -63 24 -51 25 -80 37 -174 76 -110
45 -191 69 -262 76 l-73 7 60 14 c71 15 82 17 203 32 142 17 210 16 267 -7 82
-32 181 -46 330 -46 157 0 190 4 325 41 105 29 132 40 205 83 42 25 83 47 93
49 1 1 2 -1 2 -3z m-3723 -37 c98 -18 161 -36 218 -59 11 -5 30 -12 42 -15
l23 -6 -22 -29 c-15 -21 -30 -29 -52 -30 -17 0 -38 -1 -46 -2 -23 -2 -151 52
-186 79 -17 12 -35 23 -40 23 -5 0 -22 17 -38 37 -16 20 -25 33 -19 30 6 -4
60 -16 120 -28z m2126 -96 c-7 -2 -19 -2 -25 0 -7 3 -2 5 12 5 14 0 19 -2 13
-5z m3866 -44 c-5 -10 -17 -19 -27 -18 -14 0 -14 2 3 9 19 7 19 8 2 15 -14 6
-15 10 -6 15 22 14 40 0 28 -21z m-3594 -73 c28 -8 68 -20 90 -26 58 -17 115
-43 115 -52 0 -4 7 -8 16 -8 8 0 35 -11 60 -25 25 -14 51 -25 59 -25 8 0 15
-3 15 -7 0 -12 225 -123 248 -123 6 0 12 -7 16 -15 3 -9 0 -15 -9 -15 -8 0
-15 -4 -15 -8 0 -9 -116 20 -225 56 -384 127 -759 160 -958 86 -20 -8 -56 -14
-78 -14 l-41 0 29 23 c56 47 122 87 142 87 11 0 24 6 28 14 11 18 67 46 93 46
12 0 39 9 61 19 22 11 46 18 52 15 7 -2 32 0 57 4 48 8 156 -6 245 -32z
m-4247 -33 c-2 -5 13 -34 32 -66 42 -71 69 -120 70 -128 0 -11 -85 -31 -116
-27 -16 2 -29 8 -28 13 0 6 -7 18 -15 27 -9 9 -24 30 -34 46 l-17 30 52 56
c55 57 60 61 56 49z m-228 -23 c8 -16 8 -18 -4 -14 -17 6 -30 34 -16 34 5 0
14 -9 20 -20z m5200 -267 l35 -13 -31 4 c-18 3 -47 12 -65 20 -34 15 -34 15
-4 9 17 -3 46 -12 65 -20z m-4789 -45 l21 -43 -28 25 c-16 14 -30 25 -32 26
-4 2 9 34 14 34 2 0 13 -19 25 -42z m528 -17 c13 -11 28 -22 34 -24 7 -2 -5
-21 -26 -42 -34 -33 -38 -42 -32 -69 4 -17 8 -43 9 -59 2 -15 10 -33 20 -40
11 -8 18 -31 21 -71 2 -32 9 -64 15 -71 6 -7 15 -27 20 -44 8 -29 5 -33 -35
-67 -24 -19 -50 -48 -57 -64 -9 -22 -15 -26 -25 -18 -7 6 -13 15 -13 20 0 5
-14 30 -31 55 l-31 45 22 15 c19 14 21 22 16 63 -5 38 -2 55 19 94 26 50 32
90 14 101 -15 10 -46 -21 -52 -53 -17 -82 -93 -93 -159 -22 -21 22 -38 48 -38
59 0 10 -7 24 -16 31 -13 11 -16 10 -20 -7 -7 -27 -59 -64 -78 -57 -28 11 -17
-7 29 -50 41 -39 45 -47 45 -89 0 -26 -3 -47 -8 -47 -4 0 -29 24 -56 54 -27
30 -62 60 -77 67 -33 13 -36 21 -13 40 8 7 13 21 10 31 -2 11 6 35 20 56 14
20 23 44 21 54 -3 10 -1 18 4 18 5 0 9 -6 9 -14 0 -18 31 -15 84 7 21 10 42
17 47 17 4 0 24 9 43 21 30 17 38 18 58 8 41 -22 111 -20 103 4 -4 10 58 64
76 66 3 1 16 -8 28 -18z m-534 -111 c8 -13 -15 -13 -35 0 -12 8 -11 10 7 10
12 0 25 -4 28 -10z m695 -19 c0 -18 -72 -73 -82 -63 -6 6 -18 8 -27 5 -9 -3 9
11 39 30 59 38 70 42 70 28z m-656 -216 c14 -21 13 -24 -7 -43 -35 -33 -72
-43 -93 -27 -11 8 -15 15 -11 15 4 0 3 9 -3 19 -15 28 -2 50 34 59 41 11 62 5
80 -23z m96 -107 c0 -5 7 -8 17 -8 12 0 8 -7 -13 -25 -49 -43 -104 -46 -104
-5 0 11 9 25 20 32 11 7 20 22 20 34 0 34 12 36 37 7 12 -16 22 -31 23 -35z
m173 -9 c4 -15 -6 -30 -36 -58 -69 -63 -114 -101 -120 -101 -3 0 -8 11 -11 25
-4 14 -14 25 -23 25 -18 0 24 33 102 79 28 16 55 34 60 40 15 15 22 13 28 -10z
m-12 -197 c-28 -36 -52 -70 -54 -75 -5 -15 -77 23 -77 40 0 8 -4 12 -9 8 -5
-3 -12 -1 -16 5 -3 5 -1 10 6 10 15 0 112 61 118 73 2 5 17 17 34 28 32 19 32
19 40 -3 6 -17 -3 -35 -42 -86z m193 -29 c18 -21 18 -22 -23 -43 -23 -11 -41
-16 -41 -10 0 5 4 10 8 10 5 0 14 16 22 35 7 19 14 34 14 32 1 -1 9 -12 20
-24z m-81 -98 c-3 -9 -8 -14 -10 -11 -3 3 -2 9 2 15 9 16 15 13 8 -4z m247
-30 c0 -8 14 -18 33 -23 26 -7 32 -13 30 -33 -17 -174 -17 -169 4 -197 14 -19
21 -45 21 -81 1 -29 6 -59 12 -66 5 -6 8 -14 5 -17 -3 -3 4 -27 16 -54 51
-115 134 -219 234 -292 28 -20 52 -39 55 -42 3 -3 15 -11 28 -18 183 -103 405
-164 590 -163 71 0 92 -3 92 -13 0 -8 13 -16 29 -18 17 -2 28 -1 25 3 -5 9
120 23 181 21 131 -5 323 -41 385 -72 21 -11 45 -20 51 -20 12 0 112 -43 139
-60 8 -5 29 -16 45 -24 35 -16 109 -92 101 -104 -2 -4 13 -25 34 -46 23 -22
37 -43 33 -52 -3 -8 1 -14 11 -14 10 0 13 -5 9 -17 -5 -12 -2 -15 10 -10 11 4
14 2 10 -9 -3 -9 0 -14 7 -12 7 2 21 -11 32 -29 19 -32 19 -32 -1 -52 -25 -25
-27 -35 -6 -27 9 3 15 0 15 -9 0 -22 -31 -18 -37 5 -3 11 -9 20 -14 20 -5 0
-6 7 -3 15 4 8 1 15 -5 15 -6 0 -8 6 -5 14 3 7 -2 16 -10 19 -9 4 -12 14 -9
26 3 14 0 23 -11 27 -9 3 -16 10 -16 15 0 5 -17 26 -37 47 -21 22 -46 49 -55
60 -10 12 -30 24 -45 28 -15 4 -50 21 -78 39 -27 18 -65 36 -82 40 -18 3 -33
11 -33 16 0 5 -7 9 -15 9 -9 0 -26 7 -38 15 -12 8 -38 15 -57 17 -19 1 -52 11
-74 21 -21 10 -53 21 -70 23 -70 10 -231 21 -248 16 -10 -2 -24 1 -31 7 -14
11 -76 9 -95 -3 -7 -4 -71 -7 -144 -6 -73 0 -140 0 -148 0 -78 -3 -291 10
-313 19 -16 6 -41 11 -57 11 -15 0 -30 7 -33 14 -3 8 -22 18 -41 21 -19 4 -40
13 -47 21 -6 8 -20 14 -31 14 -10 0 -21 7 -24 15 -4 8 -12 15 -19 15 -7 0 -15
7 -19 15 -3 8 -12 15 -21 15 -8 0 -15 5 -15 12 0 6 -19 29 -42 50 -23 21 -39
41 -35 44 4 4 -2 14 -13 21 -11 8 -18 19 -15 24 4 5 -1 12 -9 15 -9 3 -16 15
-16 25 0 10 -4 19 -9 19 -5 0 -12 13 -16 30 -4 16 -12 33 -18 37 -13 8 -37 84
-45 141 -2 19 -11 36 -19 39 -12 5 -12 7 -1 14 9 6 10 13 3 26 -6 10 -10 49
-9 87 1 38 -2 81 -6 97 -5 17 -5 31 1 34 5 4 9 17 9 31 0 21 -4 25 -22 23 -13
-2 -29 0 -37 5 -8 5 -16 3 -22 -5 -7 -11 -9 -9 -9 6 0 24 -45 65 -74 66 -73 5
-106 19 -44 19 44 0 168 37 168 50 0 6 7 10 15 10 8 0 15 -7 15 -15z m2955 -7
c14 -6 24 -17 21 -24 -3 -8 -1 -16 4 -19 6 -4 10 -1 10 4 0 8 6 7 19 -1 18
-11 18 -13 3 -24 -14 -10 -13 -13 9 -25 13 -7 31 -18 41 -24 28 -17 162 -113
188 -135 14 -12 53 -38 87 -58 35 -20 63 -40 63 -44 0 -9 -49 11 -70 28 -36
30 -63 26 -107 -16 -24 -23 -43 -44 -43 -49 0 -4 -9 -16 -20 -26 -23 -21 -70
-112 -70 -136 0 -23 -20 -70 -38 -88 -7 -8 -9 -17 -5 -20 13 -8 25 -44 13 -36
-6 3 -10 1 -10 -4 0 -6 5 -11 12 -11 9 0 9 -3 0 -12 -21 -21 -38 17 -36 81 1
59 32 150 45 130 4 -6 12 -8 19 -4 8 5 7 11 -4 24 -14 15 -13 21 11 57 38 57
92 111 125 125 33 14 32 30 -3 39 -13 4 -42 19 -63 34 -22 14 -51 29 -65 33
-14 3 -43 21 -64 39 -20 19 -44 34 -52 34 -8 0 -15 5 -15 10 0 6 -4 10 -10 10
-5 0 -10 -7 -10 -15 0 -8 -11 -17 -25 -21 -14 -3 -25 -13 -25 -23 0 -9 -9 -31
-20 -49 -11 -18 -20 -41 -20 -52 0 -24 -21 -71 -29 -65 -4 2 -8 -5 -8 -16 -1
-10 2 -19 7 -19 5 0 3 -21 -5 -47 -13 -43 -13 -48 1 -56 12 -7 13 -11 4 -17
-9 -5 -9 -13 -2 -26 6 -11 12 -39 13 -64 2 -25 10 -53 18 -62 17 -19 23 -48
11 -48 -12 0 -27 23 -34 54 -4 15 -14 35 -21 43 -8 8 -15 28 -15 45 0 17 -5
60 -11 95 -9 49 -8 67 1 78 10 12 10 15 0 15 -8 0 -10 10 -6 30 3 17 9 44 12
60 3 17 10 28 15 25 5 -4 17 -1 26 4 17 10 16 11 -4 17 -19 5 -22 11 -17 33 3
14 15 37 25 51 25 33 40 70 33 81 -8 14 -52 11 -61 -4 -4 -7 -22 -19 -40 -26
-41 -17 -108 -79 -118 -109 -4 -13 -9 -21 -12 -19 -8 8 34 91 56 111 12 11 21
25 21 33 0 20 89 58 103 44 18 -18 44 -12 51 11 4 18 8 20 18 10 6 -6 23 -12
36 -12 21 0 22 2 12 15 -15 18 -9 19 25 3z m360 -386 c-3 -3 -5 0 -5 7 0 7 -4
9 -10 6 -11 -7 -14 18 -3 29 4 4 11 -3 15 -15 5 -12 6 -24 3 -27z m285 -19
c-1 -10 -9 -36 -20 -58 -11 -22 -19 -48 -20 -59 0 -12 -5 -16 -15 -13 -8 4
-17 2 -20 -2 -3 -5 1 -11 9 -14 15 -6 11 -53 -8 -76 -6 -8 -6 -12 -1 -9 6 4 9
-14 7 -48 -2 -30 -7 -54 -12 -54 -13 0 -18 52 -13 139 5 97 17 136 38 127 17
-6 21 9 5 19 -15 9 -12 23 10 45 25 25 40 26 40 3z m222 -37 c22 -20 36 -41
33 -49 -6 -14 86 -65 122 -69 62 -5 85 14 38 32 -86 34 -81 31 -63 44 14 10
83 12 142 4 28 -4 71 -47 94 -94 32 -63 119 -148 182 -176 48 -22 141 -45 162
-40 4 1 14 -14 23 -33 17 -42 63 -65 130 -65 42 0 47 -3 62 -35 9 -19 14 -37
11 -41 -17 -16 -95 -8 -127 13 -18 13 -37 20 -42 17 -5 -3 -9 -1 -9 4 0 6 -7
13 -16 16 -9 4 -13 2 -8 -5 4 -7 0 -9 -14 -5 -17 6 -21 3 -19 -13 1 -11 3 -18
6 -16 2 3 10 0 17 -6 7 -6 32 -13 54 -15 23 -3 53 -9 66 -15 14 -5 36 -9 49
-9 14 0 29 -9 35 -20 6 -11 15 -18 19 -15 5 2 11 -6 13 -20 5 -22 2 -24 -18
-19 -41 11 -48 -7 -11 -32 44 -29 52 -50 26 -65 -16 -8 -29 -5 -67 20 -62 39
-126 51 -140 25 -16 -32 -3 -44 45 -44 60 0 123 -19 123 -38 0 -10 8 -13 29
-10 23 3 32 -1 40 -18 5 -12 8 -30 7 -40 -3 -16 -11 -19 -52 -16 -57 3 -114
19 -114 33 0 5 -8 9 -17 9 -10 0 -27 7 -37 15 -32 24 -81 19 -94 -9 -9 -21 -6
-28 20 -55 31 -31 41 -34 115 -31 53 2 77 -11 93 -50 7 -16 19 -30 26 -30 20
0 17 -24 -5 -51 -16 -21 -22 -22 -45 -11 -14 6 -26 18 -26 26 0 20 -55 37 -85
26 -19 -7 -31 -3 -62 22 -21 17 -57 39 -81 50 -23 10 -53 29 -66 41 -14 12
-39 35 -57 52 -17 16 -40 48 -51 72 -10 23 -24 48 -31 55 -7 7 -22 27 -34 43
-31 45 -144 155 -199 195 -27 19 -51 38 -54 41 -3 4 -24 16 -47 28 -23 11 -56
35 -73 51 -17 17 -41 30 -53 30 -12 0 -28 4 -36 9 -10 7 -7 12 15 22 25 12 30
21 34 67 3 29 2 58 -2 65 -4 7 -8 26 -8 44 0 24 -8 38 -33 57 -19 15 -40 26
-48 26 -15 1 49 39 66 40 6 0 27 -16 47 -34z m-486 -83 c-3 -7 -2 -13 3 -13 5
0 12 -12 16 -27 3 -15 15 -44 25 -66 10 -21 16 -45 13 -52 -3 -9 5 -19 21 -26
14 -7 26 -16 26 -21 0 -5 11 -13 25 -18 34 -13 32 -30 -4 -30 -35 0 -81 35
-81 61 0 10 -4 19 -9 19 -4 0 -20 17 -34 38 -20 29 -27 55 -32 117 l-7 80 21
-24 c12 -14 19 -31 17 -38z m-3389 -109 c-3 -3 -12 -4 -19 -1 -8 3 -5 6 6 6
11 1 17 -2 13 -5z m30 -116 c-3 -8 -6 -5 -6 6 -1 11 2 17 5 13 3 -3 4 -12 1
-19z m3576 -45 c7 -10 209 -9 225 1 7 4 31 -2 55 -14 23 -12 59 -31 79 -41 20
-10 74 -55 120 -100 68 -66 78 -79 56 -75 -24 5 -30 0 -60 -49 -19 -32 -40
-55 -50 -55 -10 0 -18 -7 -18 -16 0 -8 -4 -13 -9 -10 -5 3 -14 -1 -21 -9 -6
-7 -17 -12 -25 -9 -19 8 -29 -14 -15 -31 9 -11 9 -15 1 -15 -6 0 -11 5 -11 11
0 6 -5 7 -12 2 -7 -4 -17 -8 -23 -8 -20 -2 -83 -35 -87 -45 -2 -6 -20 -11 -41
-12 -21 -1 -40 -5 -43 -10 -3 -4 -20 -8 -39 -8 -19 0 -37 -4 -40 -10 -3 -5
-25 -7 -50 -3 -25 3 -45 2 -45 -3 0 -10 -13 -12 -92 -14 -27 -1 -48 -5 -48
-11 0 -5 -19 -9 -41 -9 l-42 0 27 21 c14 11 26 29 26 40 0 20 19 60 34 70 5 4
6 14 3 23 -3 8 -2 18 2 21 5 3 7 14 4 25 -3 11 0 26 6 34 7 8 13 34 15 58 3
44 14 79 27 88 4 3 8 19 10 35 2 17 10 38 17 47 8 10 13 30 10 47 -4 28 -2 30
31 34 20 2 41 4 48 5 6 1 14 -1 16 -5z m-1853 -151 c0 -7 107 -6 143 1 7 1 11
-5 9 -13 -2 -8 -5 -26 -7 -40 -1 -14 -3 -28 -4 -32 0 -4 -13 -3 -28 3 -16 7
-37 15 -48 19 -11 4 -37 15 -58 24 -21 9 -49 16 -62 16 -13 0 -27 5 -30 10 -4
6 -11 7 -17 4 -7 -4 -8 -2 -4 4 8 13 106 17 106 4z m638 -173 c15 -9 18 -21
14 -58 -2 -25 -9 -49 -15 -53 -8 -5 -6 -8 6 -8 20 0 23 -16 5 -23 -10 -3 -10
-7 1 -20 7 -10 10 -17 5 -17 -5 0 -2 -5 6 -10 12 -7 12 -10 1 -10 -9 0 -11 -8
-7 -25 5 -18 2 -27 -9 -31 -21 -8 -19 -21 4 -27 12 -3 18 -12 16 -28 -3 -33
-3 -33 -19 -20 -11 9 -15 9 -19 -1 -7 -20 -40 3 -48 34 -4 14 -2 66 3 114 5
49 11 107 12 129 2 38 11 65 22 65 2 0 12 -5 22 -11z m2505 -229 c4 -4 1 -13
-8 -20 -13 -11 -15 -10 -10 2 4 9 -3 19 -17 26 -23 12 -23 12 2 6 14 -3 29
-10 33 -14z m1392 3 c-16 -8 -37 -21 -45 -28 -20 -16 -97 -60 -89 -51 17 19
136 96 149 95 8 0 2 -7 -15 -16z m-2316 -142 c-23 -19 -34 -24 -43 -18 -2 1
-12 -5 -22 -14 -21 -18 -64 -31 -64 -20 0 4 18 22 40 40 32 26 44 30 55 21 11
-9 17 -7 27 9 8 13 16 17 22 11 6 -6 0 -17 -15 -29z m2365 4 c-3 -8 -14 -17
-25 -20 -10 -4 -19 -11 -19 -16 0 -5 -6 -4 -13 3 -10 9 -11 15 -3 24 8 9 13 9
19 0 6 -8 12 -6 20 7 14 21 29 23 21 2z m-2264 -25 c0 -5 -7 -10 -15 -10 -8 0
-15 5 -15 10 0 6 7 10 15 10 8 0 15 -4 15 -10z m2185 -21 c8 -12 -27 -49 -46
-49 -14 0 -66 -36 -104 -73 -16 -16 -63 -44 -102 -63 -40 -19 -73 -39 -73 -43
0 -5 -22 -18 -49 -30 -27 -11 -51 -24 -53 -29 -6 -15 -75 -62 -91 -62 -8 0
-24 -12 -34 -26 -15 -20 -27 -25 -61 -26 -32 0 -40 -3 -33 -12 8 -9 -4 -23
-39 -49 -27 -20 -53 -37 -57 -37 -5 0 -30 -21 -58 -46 -27 -25 -94 -84 -147
-131 -114 -100 -129 -121 -43 -58 53 39 120 73 133 68 6 -3 12 2 12 11 0 12
206 146 224 146 14 0 -9 -30 -27 -36 -12 -4 -29 -14 -37 -23 -18 -19 -123 -91
-134 -91 -4 0 -35 -20 -69 -44 -87 -62 -175 -107 -180 -92 -3 8 -8 8 -18 -1
-11 -11 -11 -13 1 -13 27 0 -53 -59 -84 -62 -21 -2 -34 -10 -41 -25 -5 -13
-14 -23 -20 -23 -5 0 -35 -17 -65 -38 -30 -21 -80 -52 -110 -69 -30 -18 -65
-41 -77 -52 -12 -12 -28 -21 -36 -21 -7 0 -22 -8 -33 -19 -11 -10 -30 -22 -42
-25 -12 -4 -22 -11 -22 -16 0 -5 -25 -23 -55 -40 -30 -17 -61 -37 -68 -44 -16
-16 -75 -37 -80 -28 -3 4 3 43 12 87 l16 80 100 66 c55 37 124 79 152 94 29
16 60 37 69 47 10 10 21 18 25 18 11 0 209 128 237 154 13 11 27 20 30 20 13
-3 56 17 72 32 18 17 138 94 147 94 4 0 16 9 27 19 12 10 48 34 81 51 33 18
72 44 87 59 15 14 49 37 75 51 26 13 55 31 63 40 8 8 31 24 50 34 30 17 61 38
107 76 7 6 21 10 32 10 10 0 21 7 24 15 4 8 25 26 49 41 24 15 67 43 95 61 29
19 67 41 85 49 18 8 58 30 88 49 58 35 85 42 95 24z m-1760 -41 c7 -7 -1 -9
-25 -4 -19 3 -39 11 -45 17 -7 8 0 9 25 4 19 -4 40 -12 45 -17z m-2141 -22
c26 10 69 -24 62 -49 -3 -11 0 -27 5 -34 11 -12 20 -52 20 -86 1 -65 49 -108
137 -122 48 -8 55 -28 15 -43 -41 -16 -144 -13 -170 4 -26 16 -47 19 -38 4 9
-15 -36 -12 -64 4 -26 14 -27 18 -38 110 -4 37 -13 66 -25 78 -22 22 -23 44
-2 83 10 19 11 31 5 33 -6 2 -11 11 -11 19 0 11 7 14 25 9 16 -4 25 -2 25 5 0
8 7 6 19 -5 10 -9 25 -14 35 -10z m1396 -20 c0 -2 -8 -10 -17 -17 -16 -13 -17
-12 -4 4 13 16 21 21 21 13z m-66 -81 c-4 -8 -10 -15 -15 -15 -5 0 -28 -18
-50 -40 -23 -22 -42 -40 -43 -40 -1 0 -2 15 -2 34 0 19 4 32 9 29 9 -6 80 27
85 40 7 14 21 7 16 -8z m-303 -92 c-8 -15 -10 -15 -11 -2 0 17 10 32 18 25 2
-3 -1 -13 -7 -23z m-241 -68 c-7 -8 -10 -24 -7 -35 3 -11 1 -20 -4 -20 -10 0
-12 31 -3 54 3 9 11 16 16 16 6 0 5 -6 -2 -15z m-884 -97 c3 -66 3 -68 -20
-68 -31 0 -51 45 -41 92 10 45 14 50 37 46 18 -3 21 -12 24 -70z m3583 26 c-7
-8 -31 -25 -53 -36 -34 -17 -38 -18 -27 -4 12 14 76 54 90 56 2 0 -2 -7 -10
-16z m-130 -77 c-2 -1 -13 -9 -24 -17 -19 -14 -19 -14 -6 3 7 9 18 17 24 17 6
0 8 -1 6 -3z m-2475 -53 c19 -7 21 -24 3 -24 -7 0 -35 -24 -63 -52 -63 -66
-144 -138 -156 -138 -15 0 -8 27 17 64 14 20 27 47 31 61 6 26 26 37 49 29 19
-8 65 21 65 40 0 21 27 30 54 20z m942 -553 c-3 -4 -20 -14 -38 -21 -18 -7
-42 -21 -53 -30 -11 -10 -49 -33 -85 -53 -144 -78 -195 -109 -242 -149 -27
-22 -51 -38 -55 -35 -3 4 -20 -5 -38 -18 -17 -14 -37 -25 -43 -25 -7 0 -12 -4
-12 -9 0 -5 -8 -12 -17 -15 -30 -11 -67 -34 -78 -50 -6 -7 -32 -24 -58 -36
-26 -12 -47 -26 -47 -30 0 -5 -16 -14 -35 -20 -19 -6 -35 -15 -35 -19 0 -8
-72 -51 -85 -51 -14 0 43 48 65 55 11 3 20 10 20 15 0 4 8 10 18 12 17 5 70
38 342 216 47 30 87 59 88 64 2 4 9 8 15 8 7 0 41 20 76 45 35 25 83 53 105
64 23 11 67 31 98 46 32 14 60 30 63 36 4 5 13 9 21 9 8 0 13 -4 10 -9z m-196
-195 c0 -2 -8 -10 -17 -17 -16 -13 -17 -12 -4 4 13 16 21 21 21 13z m-45 -336
c3 -5 -1 -10 -10 -10 -9 0 -13 5 -10 10 3 6 8 10 10 10 2 0 7 -4 10 -10z
m-981 -129 c-5 -5 -20 -12 -34 -16 -23 -6 -22 -5 5 13 29 19 48 21 29 3z m-74
-51 c0 -5 -4 -10 -9 -10 -6 0 -13 5 -16 10 -3 6 1 10 9 10 9 0 16 -4 16 -10z
m-54 -26 c-1 -9 -16 -22 -32 -29 -16 -6 -35 -19 -43 -28 -7 -10 -19 -17 -25
-17 -7 0 -21 -8 -32 -18 -22 -20 -99 -62 -115 -62 -12 0 75 62 101 72 8 4 44
27 80 52 36 25 66 46 67 46 1 0 0 -7 -1 -16z m104 -44 c-24 -15 -37 -11 -16 5
11 8 22 12 25 9 3 -3 -1 -9 -9 -14z m-170 -100 c0 -5 -6 -10 -14 -10 -7 0 -19
-7 -26 -15 -7 -8 -18 -15 -24 -15 -12 0 44 49 57 50 4 0 7 -4 7 -10z m-206
-23 c-6 -16 -44 -40 -44 -28 0 5 10 16 23 24 27 20 27 20 21 4z m-50 -46 c3
-5 -5 -12 -18 -15 -13 -3 -34 -17 -47 -31 -13 -13 -29 -25 -35 -25 -6 0 -17
-7 -24 -15 -7 -9 -21 -13 -31 -10 -12 4 -19 1 -19 -7 0 -14 -50 -68 -63 -68
-4 0 -39 -23 -79 -51 -91 -64 -136 -91 -142 -87 -2 2 -12 -4 -22 -13 -36 -31
-124 -89 -136 -89 -6 0 -19 -7 -29 -16 -20 -18 -67 -26 -75 -13 -3 5 0 9 7 9
7 0 24 10 38 23 27 24 246 167 256 167 4 0 34 19 68 43 34 24 70 46 80 50 9 3
17 11 17 17 0 5 6 10 14 10 7 0 58 29 112 65 99 65 118 73 128 56z m1236 -121
c-29 -22 -57 -40 -62 -40 -5 0 -18 -9 -30 -20 -12 -11 -24 -18 -27 -15 -2 3 4
12 15 20 15 11 16 14 4 15 -12 0 -13 2 -1 9 7 5 23 6 35 4 14 -3 17 -2 8 4 -9
7 3 17 40 36 75 37 80 33 18 -13z m-1840 -35 c-7 -8 -18 -15 -24 -15 -6 0 -2
7 8 15 25 19 32 19 16 0z m-784 -40 c-31 -30 -46 -54 -47 -72 -4 -85 -3 -106
9 -115 6 -6 12 -18 12 -27 0 -9 7 -27 16 -39 15 -22 15 -24 -1 -36 -15 -11
-21 -9 -39 8 -12 12 -20 28 -18 36 1 8 -3 24 -11 34 -11 16 -12 31 -1 95 15
96 17 100 61 134 57 43 69 32 19 -18z m2494 8 c-1 -19 -18 -33 -33 -27 -10 3
-17 1 -17 -5 0 -6 6 -11 13 -11 6 -1 1 -7 -13 -15 -14 -8 -29 -10 -34 -5 -11
11 -39 -16 -31 -30 3 -5 1 -10 -5 -10 -7 0 -25 -11 -42 -25 -16 -14 -36 -25
-44 -25 -8 0 -14 -6 -14 -12 0 -7 -5 -5 -11 5 -14 24 -29 21 -26 -4 1 -12 -4
-24 -11 -26 -7 -3 -10 1 -6 11 4 10 1 16 -7 16 -17 0 10 19 146 101 105 64
135 78 135 62z m-1022 -112 c-7 -11 -16 -17 -22 -14 -5 3 -1 12 9 20 25 18 27
17 13 -6z m719 -57 c-3 -4 -2 -15 4 -26 9 -16 7 -20 -10 -25 -12 -3 -21 -9
-21 -14 0 -14 -51 -36 -100 -44 l-45 -7 45 36 c25 20 51 34 58 31 6 -2 12 1
12 8 0 7 12 19 28 29 29 18 39 22 29 12z m-1522 -103 c6 -11 -12 -25 -37 -26
-21 -2 -23 6 -6 23 14 14 35 16 43 3z"/>
<path d="M6436 8738 c4 -7 25 -39 47 -70 34 -50 39 -62 36 -105 -4 -55 -23
-87 -104 -179 l-59 -66 -106 7 -106 7 -49 -49 c-66 -64 -85 -89 -85 -114 0
-11 -4 -18 -9 -15 -5 3 -11 -4 -14 -16 -4 -13 -1 -26 6 -30 7 -4 9 -8 5 -8 -7
0 6 -57 23 -101 14 -35 49 -31 90 10 17 17 41 31 54 31 13 0 27 5 30 10 3 6
13 10 21 10 8 0 43 13 77 29 71 33 157 119 157 156 0 15 24 50 64 94 67 72 82
106 73 166 -2 17 -1 35 4 41 14 17 -31 94 -88 151 -48 49 -84 71 -67 41z m-66
-486 c0 -4 10 -8 21 -9 12 -1 27 -7 32 -12 7 -7 3 -9 -14 -5 -64 14 -162 -3
-184 -32 -6 -9 -15 -10 -23 -5 -11 6 -6 14 17 31 18 12 43 25 57 28 38 11 94
13 94 4z m-206 -107 c-9 -14 -19 -24 -21 -21 -6 6 20 46 30 46 4 0 0 -11 -9
-25z"/>
<path d="M5965 5950 c3 -5 8 -10 11 -10 2 0 4 5 4 10 0 6 -5 10 -11 10 -5 0
-7 -4 -4 -10z"/>
<path d="M5191 5372 c0 -13 -5 -20 -11 -17 -6 4 -7 -1 -3 -11 5 -15 7 -15 15
0 5 9 7 24 5 34 -3 12 -5 10 -6 -6z"/>
<path d="M5172 5272 c2 -9 9 -17 16 -18 7 -1 8 0 2 3 -7 3 -8 9 -1 17 8 9 6
13 -5 13 -8 0 -14 -7 -12 -15z"/>
<path d="M5650 3670 c0 -5 7 -10 16 -10 8 0 12 5 9 10 -3 6 -10 10 -16 10 -5
0 -9 -4 -9 -10z"/>
<path d="M6405 3579 c-10 -15 3 -25 16 -12 7 7 7 13 1 17 -6 3 -14 1 -17 -5z"/>
<path d="M7452 3027 c-1 -22 3 -25 55 -30 61 -6 73 -3 73 17 0 8 -16 17 -37
20 -21 4 -49 9 -63 12 -21 4 -26 1 -28 -19z"/>
<path d="M8990 2500 c0 -5 5 -10 10 -10 6 0 10 5 10 10 0 6 -4 10 -10 10 -5 0
-10 -4 -10 -10z"/>
<path d="M7280 1290 c-13 -8 -12 -10 3 -10 9 0 17 5 17 10 0 12 -1 12 -20 0z"/>
<path d="M6010 70 c0 -5 5 -10 10 -10 6 0 10 5 10 10 0 6 -4 10 -10 10 -5 0
-10 -4 -10 -10z"/>
<path d="M5500 10227 c-45 -36 -119 -156 -127 -207 -14 -81 -14 -161 -1 -183
8 -12 18 -33 21 -47 4 -14 15 -34 25 -45 20 -23 102 -78 108 -73 2 2 -10 21
-27 41 -16 20 -30 40 -31 44 0 4 -5 19 -10 33 -26 68 -32 127 -18 201 16 83
48 140 117 207 l45 42 -44 0 c-23 0 -50 -6 -58 -13z"/>
<path d="M7559 10218 c11 -28 36 -27 83 2 l33 20 -62 0 c-61 0 -62 -1 -54 -22z"/>
<path d="M6770 9959 c0 -5 5 -7 10 -4 6 3 10 8 10 11 0 2 -4 4 -10 4 -5 0 -10
-5 -10 -11z"/>
<path d="M6745 9930 c-3 -5 -1 -10 4 -10 6 0 11 5 11 10 0 6 -2 10 -4 10 -3 0
-8 -4 -11 -10z"/>
<path d="M6812 9903 c4 -22 24 -27 31 -9 3 8 -2 16 -14 19 -15 4 -19 1 -17
-10z"/>
<path d="M4888 9765 c-122 -69 -379 -386 -515 -635 -17 -30 -46 -82 -64 -115
-46 -80 -90 -180 -93 -210 -2 -14 -6 -28 -9 -32 -15 -14 -6 -87 14 -120 26
-42 22 -59 -34 -155 -50 -85 -84 -154 -125 -258 -38 -95 -57 -144 -58 -150 0
-3 -6 -25 -13 -50 -8 -25 -22 -74 -32 -109 -19 -64 -24 -141 -10 -175 11 -28
24 -4 27 51 4 60 33 161 61 208 13 22 32 58 43 80 11 22 37 63 58 90 20 28 64
93 96 145 32 52 69 111 81 130 12 19 39 64 60 100 41 70 119 171 180 233 26
27 42 55 52 95 8 31 23 66 33 77 9 11 24 32 31 46 8 15 34 55 59 89 25 34 50
70 55 78 6 9 15 22 20 28 6 7 20 25 32 41 12 15 36 44 53 63 59 64 66 79 47
98 -15 15 -19 15 -49 0 -18 -9 -71 -43 -118 -77 -47 -33 -87 -56 -89 -50 -2 6
9 33 24 60 14 27 23 49 19 49 -4 0 0 8 8 18 8 9 34 58 57 107 24 50 46 92 50
95 14 11 93 161 89 169 -2 4 -20 -2 -40 -14z m-34 -87 c-5 -7 -37 -58 -71
-113 -61 -96 -133 -230 -137 -257 -1 -7 -5 -18 -8 -24 -14 -21 3 -54 28 -54
26 0 90 36 113 64 7 9 19 16 26 16 6 0 20 9 30 20 10 11 20 18 23 16 2 -3 -25
-40 -60 -83 -57 -70 -198 -275 -227 -330 -6 -12 -11 -35 -11 -51 0 -20 -13
-46 -37 -76 -142 -171 -184 -228 -231 -312 -47 -86 -239 -384 -247 -384 -6 0
8 45 18 58 5 6 6 12 2 12 -4 0 -3 6 3 13 6 6 38 66 72 132 35 66 74 140 88
165 68 121 75 149 42 177 -11 10 -20 25 -20 35 0 9 -5 20 -10 23 -7 4 -7 11
-2 18 5 7 17 37 28 67 24 73 116 247 185 354 22 33 39 63 39 68 0 4 10 18 23
31 12 13 42 52 67 87 25 35 67 91 93 124 26 34 56 71 65 82 26 33 117 134 120
134 2 0 0 -6 -4 -12z"/>
<path d="M5360 9686 c-3 -3 -25 -6 -48 -7 -24 -2 -46 -7 -48 -11 -3 -4 -12 -8
-20 -8 -39 0 -160 -105 -186 -162 -7 -16 -15 -28 -18 -28 -3 0 -14 -17 -24
-37 -10 -21 -22 -46 -27 -56 -6 -10 -7 -22 -4 -27 4 -6 1 -10 -5 -10 -6 0 -10
-6 -8 -12 1 -7 -4 -29 -10 -49 -7 -20 -12 -41 -11 -45 1 -5 1 -11 0 -14 -2 -3
-3 -27 -5 -55 l-2 -50 43 4 c24 1 43 -1 43 -6 0 -5 -20 -44 -45 -87 -25 -44
-45 -85 -45 -92 0 -7 -24 -41 -54 -76 -29 -35 -58 -73 -65 -85 -16 -31 -14
-63 4 -63 8 0 15 4 15 9 0 14 69 103 136 175 32 36 82 90 109 121 28 31 73 73
100 94 43 33 55 38 88 34 l38 -5 -6 36 c-5 26 -3 43 9 61 9 13 102 109 206
212 160 157 190 191 188 213 -3 23 -7 25 -49 24 -52 0 -101 -28 -231 -129 -43
-33 -99 -75 -125 -92 -65 -45 -56 -34 -168 -193 -94 -136 -100 -141 -107 -115
-4 15 -3 35 1 44 5 9 8 27 7 41 -1 14 2 31 8 39 12 16 36 81 36 98 0 44 145
212 198 230 71 26 107 35 157 40 54 6 69 15 40 27 -24 9 -110 18 -115 12z
m219 -123 c-46 -48 -130 -131 -186 -186 -58 -57 -110 -116 -120 -138 -11 -25
-35 -51 -72 -76 -31 -21 -91 -71 -134 -112 -78 -74 -88 -73 -35 6 15 23 28 44
28 48 0 5 52 76 102 138 13 16 30 39 38 51 8 13 27 41 42 63 14 22 42 47 61
56 19 9 40 23 47 32 7 8 18 15 24 15 6 0 27 15 46 33 19 19 53 45 75 59 22 14
46 33 54 42 7 9 19 16 26 16 8 0 15 5 17 11 2 5 11 11 20 13 10 1 21 5 24 9 4
4 12 7 17 7 6 0 -27 -39 -74 -87z"/>
<path d="M6560 9420 c0 -5 5 -10 10 -10 6 0 10 5 10 10 0 6 -4 10 -10 10 -5 0
-10 -4 -10 -10z"/>
<path d="M4055 9290 c3 -5 8 -10 11 -10 2 0 4 5 4 10 0 6 -5 10 -11 10 -5 0
-7 -4 -4 -10z"/>
<path d="M3640 8969 c0 -5 5 -7 10 -4 6 3 10 8 10 11 0 2 -4 4 -10 4 -5 0 -10
-5 -10 -11z"/>
<path d="M3706 8648 c-9 -29 -26 -91 -39 -138 -14 -47 -34 -166 -46 -265 -12
-99 -28 -211 -36 -250 -8 -38 -25 -123 -38 -187 l-23 -116 23 -11 c37 -17 41
-14 41 29 1 40 21 178 47 325 8 44 22 147 30 229 9 82 17 152 19 155 2 3 7 39
11 80 4 40 15 102 25 137 9 35 14 64 9 64 -5 0 -15 -24 -23 -52z"/>
<path d="M2013 8553 c9 -9 19 -14 23 -11 10 10 -6 28 -24 28 -15 0 -15 -1 1
-17z"/>
<path d="M2195 8460 c-3 -5 1 -10 9 -10 9 0 16 5 16 10 0 6 -4 10 -9 10 -6 0
-13 -4 -16 -10z"/>
<path d="M2694 8098 c-5 -7 -3 -8 6 -3 8 5 18 1 27 -10 7 -11 13 -14 13 -9 0
12 -21 34 -31 34 -4 0 -11 -5 -15 -12z"/>
<path d="M2790 8046 c0 -2 7 -7 16 -10 8 -3 12 -2 9 4 -6 10 -25 14 -25 6z"/>
<path d="M2848 8013 c7 -3 16 -2 19 1 4 3 -2 6 -13 5 -11 0 -14 -3 -6 -6z"/>
<path d="M2915 7980 c4 -6 12 -10 20 -10 8 0 19 -8 24 -17 9 -16 10 -16 11 -1
0 9 -13 21 -30 27 -18 6 -28 6 -25 1z"/>
<path d="M2988 7923 c7 -3 16 -2 19 1 4 3 -2 6 -13 5 -11 0 -14 -3 -6 -6z"/>
<path d="M4537 7873 c-8 -27 -15 -83 -16 -127 -1 -64 3 -85 19 -114 24 -40 21
-65 -14 -117 -41 -60 -59 -128 -50 -188 4 -29 7 -56 5 -61 -1 -5 7 -15 17 -22
11 -7 22 -27 25 -44 4 -17 15 -33 24 -37 10 -4 20 -9 23 -13 3 -3 16 -13 29
-22 22 -16 25 -15 52 4 22 17 26 25 18 35 -9 10 -8 13 1 13 9 0 10 10 6 33
-10 44 -8 101 4 105 5 2 6 10 3 18 -7 18 4 18 22 1 9 -10 10 -19 3 -31 -7 -13
-7 -21 3 -26 7 -5 12 -25 11 -50 -2 -35 1 -41 16 -38 12 2 19 16 23 53 3 28 9
57 13 65 4 9 -4 35 -18 61 -13 25 -27 65 -31 89 -7 40 -6 43 9 28 9 -9 16 -28
16 -41 0 -14 7 -30 15 -37 9 -7 14 -19 11 -27 -6 -15 13 -63 24 -63 4 0 13 6
19 13 11 14 -6 77 -21 77 -4 0 -8 7 -8 16 0 19 -41 107 -52 112 -5 2 -8 12 -8
22 0 10 -4 22 -10 25 -5 3 -10 15 -10 27 0 11 -9 31 -20 45 -11 14 -20 35 -20
45 0 11 -8 37 -19 57 -10 20 -31 64 -46 99 -16 34 -34 62 -41 62 -6 0 -18 -21
-27 -47z m69 -382 c-9 -10 -16 -25 -16 -34 0 -9 -4 -17 -8 -17 -4 0 -8 -8 -9
-17 -1 -10 -5 -35 -8 -56 -3 -24 0 -49 9 -67 12 -25 12 -29 -1 -34 -22 -9 -23
-9 -39 30 -10 23 -13 47 -8 63 4 14 8 31 8 36 5 43 61 129 78 119 5 -3 3 -13
-6 -23z m107 -116 c-3 -9 -8 -14 -10 -11 -3 3 -2 9 2 15 9 16 15 13 8 -4z"/>
<path d="M3240 7849 c0 -5 5 -7 10 -4 6 3 10 8 10 11 0 2 -4 4 -10 4 -5 0 -10
-5 -10 -11z"/>
<path d="M4488 7763 c-8 -10 -39 -58 -68 -107 -52 -87 -184 -287 -221 -335
-24 -29 -24 -37 -1 -37 9 -1 24 -4 32 -8 12 -5 24 10 48 61 18 38 57 109 87
158 31 50 63 106 71 125 9 19 29 61 46 94 30 60 33 79 6 49z"/>
<path d="M3298 7743 c6 -2 18 -2 25 0 6 3 1 5 -13 5 -14 0 -19 -2 -12 -5z"/>
<path d="M5330 7651 c0 -5 -8 -12 -18 -15 -23 -8 -112 -96 -112 -111 0 -7 -9
-20 -20 -30 -25 -23 -26 -52 -1 -60 20 -6 111 28 191 72 62 34 65 38 41 62
-12 12 -21 27 -21 34 0 14 -41 57 -53 57 -4 0 -7 -4 -7 -9z"/>
<path d="M5230 7610 c0 -5 7 -10 16 -10 8 0 12 5 9 10 -3 6 -10 10 -16 10 -5
0 -9 -4 -9 -10z"/>
<path d="M3604 7585 c8 -8 17 -15 20 -15 3 0 3 7 0 15 -4 8 -13 15 -21 15 -12
0 -12 -2 1 -15z"/>
<path d="M3700 7535 c14 -8 30 -14 35 -14 6 0 -1 6 -15 14 -14 8 -29 14 -35
14 -5 0 1 -6 15 -14z"/>
<path d="M3815 7480 c10 -11 20 -20 23 -20 3 0 -3 9 -13 20 -10 11 -20 20 -23
20 -3 0 3 -9 13 -20z"/>
<path d="M3855 7450 c3 -4 14 -10 25 -13 11 -3 18 -2 15 3 -3 4 -14 10 -25 13
-11 3 -18 2 -15 -3z"/>
<path d="M3950 7400 c8 -5 20 -10 25 -10 6 0 3 5 -5 10 -8 5 -19 10 -25 10 -5
0 -3 -5 5 -10z"/>
<path d="M5035 7350 c3 -5 8 -10 11 -10 2 0 4 5 4 10 0 6 -5 10 -11 10 -5 0
-7 -4 -4 -10z"/>
<path d="M4126 7330 c5 -8 9 -18 9 -22 0 -3 3 -9 7 -13 3 -4 5 0 4 9 -1 9 -8
22 -16 29 -10 10 -11 9 -4 -3z"/>
<path d="M4780 7294 c0 -8 5 -12 10 -9 6 4 8 11 5 16 -9 14 -15 11 -15 -7z"/>
<path d="M5151 7286 c-10 -11 -9 -26 3 -67 9 -29 16 -68 16 -86 0 -18 4 -33 9
-33 14 0 22 46 16 92 -16 117 -19 124 -44 94z"/>
<path d="M3021 7274 c0 -11 3 -14 6 -6 3 7 2 16 -1 19 -3 4 -6 -2 -5 -13z"/>
<path d="M4287 7209 c7 -7 15 -10 18 -7 3 3 -2 9 -12 12 -14 6 -15 5 -6 -5z"/>
<path d="M4780 7106 c0 -13 32 -76 39 -76 4 0 14 -12 21 -27 8 -17 14 -23 17
-15 3 7 -2 21 -10 30 -8 9 -22 34 -30 55 -9 20 -21 37 -26 37 -6 0 -11 -2 -11
-4z"/>
<path d="M4876 6965 c4 -8 11 -15 16 -15 6 0 5 6 -2 15 -7 8 -14 15 -16 15 -2
0 -1 -7 2 -15z"/>
<path d="M5533 6793 c-10 -16 -20 -30 -24 -33 -3 -3 -33 -45 -66 -95 -32 -49
-65 -91 -72 -93 -22 -5 -81 -56 -81 -71 0 -8 6 -11 15 -7 12 4 13 2 6 -13 -8
-14 -4 -36 16 -87 14 -38 30 -73 34 -78 5 -6 15 7 25 30 9 21 22 53 29 69 8
17 27 64 43 105 16 41 50 119 76 172 25 54 46 104 46 113 0 25 -28 17 -47 -12z"/>
<path d="M3426 6414 c-20 -20 -20 -38 0 -54 13 -11 19 -9 40 11 16 16 22 31
18 42 -8 21 -38 22 -58 1z"/>
<path d="M3291 6394 c-10 -8 -25 -31 -32 -52 -12 -37 -25 -52 -44 -52 -5 0 -3
5 5 10 8 5 10 10 4 10 -19 0 -45 -25 -45 -45 0 -11 0 -72 1 -135 2 -101 4
-112 16 -95 8 10 14 28 14 39 0 48 11 63 40 60 21 -3 32 3 44 22 9 13 14 28
11 33 -2 5 2 11 10 15 8 3 15 11 15 18 0 7 11 36 24 65 18 37 23 60 17 79 -9
34 -50 49 -80 28z"/>
<path d="M3109 6375 c-9 -37 -41 -180 -55 -245 -8 -41 -20 -93 -25 -115 -6
-22 -13 -63 -16 -92 -5 -50 -5 -52 22 -59 15 -4 40 -3 54 2 23 9 26 15 24 54
-3 81 -2 233 2 348 2 61 1 112 -1 112 -2 0 -5 -2 -5 -5z"/>
<path d="M3585 6219 c-11 -16 -1 -19 13 -3 7 8 8 14 3 14 -5 0 -13 -5 -16 -11z"/>
<path d="M3341 6179 c-34 -20 -36 -35 -8 -53 19 -12 57 17 57 45 0 28 -13 30
-49 8z"/>
<path d="M3959 6173 c-13 -16 -12 -17 4 -4 9 7 17 15 17 17 0 8 -8 3 -21 -13z"/>
<path d="M3560 5980 c0 -5 5 -10 11 -10 5 0 7 5 4 10 -3 6 -8 10 -11 10 -2 0
-4 -4 -4 -10z"/>
<path d="M3355 5963 c4 -25 -6 -38 -16 -22 -7 11 -10 9 -15 -8 -4 -13 -11 -23
-17 -23 -6 0 -8 -3 -4 -6 8 -8 65 33 77 57 9 16 7 19 -9 19 -13 0 -18 -6 -16
-17z"/>
<path d="M3756 5955 c-77 -27 -81 -29 -71 -44 15 -25 129 1 176 40 l34 28 -35
1 c-19 0 -66 -11 -104 -25z"/>
<path d="M3430 5893 c-86 -32 -193 -87 -198 -101 -2 -8 21 -10 80 -8 83 4 148
20 148 37 0 5 5 9 12 9 21 0 78 51 78 71 0 26 -37 24 -120 -8z"/>
<path d="M3880 5819 c0 -5 5 -7 10 -4 6 3 10 8 10 11 0 2 -4 4 -10 4 -5 0 -10
-5 -10 -11z"/>
<path d="M3437 5716 c-65 -18 -69 -26 -11 -26 93 0 149 -8 189 -29 52 -28 130
-29 144 -2 8 14 7 22 -6 32 -43 37 -221 50 -316 25z"/>
<path d="M1828 2563 c7 -3 16 -2 19 1 4 3 -2 6 -13 5 -11 0 -14 -3 -6 -6z"/>
<path d="M1610 2440 c-9 -6 -10 -10 -3 -10 6 0 15 5 18 10 8 12 4 12 -15 0z"/>
<path d="M5770 880 c-9 -6 -10 -10 -3 -10 6 0 15 5 18 10 8 12 4 12 -15 0z"/>
<path d="M4620 851 c0 -18 35 -71 48 -71 7 0 12 13 12 30 0 17 -3 29 -7 28 -5
-1 -18 3 -30 10 -13 7 -23 8 -23 3z"/>
<path d="M6510 772 c0 -4 12 -9 27 -10 14 -1 23 1 19 5 -10 10 -46 14 -46 5z"/>
<path d="M4689 698 c-14 -17 -34 -31 -45 -31 -26 0 -44 -16 -44 -39 0 -15 -5
-19 -20 -15 -15 4 -20 0 -20 -14 0 -10 -9 -23 -20 -29 -22 -12 -27 -30 -9 -30
6 0 28 14 49 30 21 17 50 36 63 43 14 8 44 30 67 51 34 30 39 40 29 52 -16 19
-20 17 -50 -18z"/>
<path d="M2975 665 c-29 -14 -29 -15 -7 -21 12 -3 22 -13 22 -20 0 -20 17 -17
23 4 2 9 8 25 12 35 9 21 -7 21 -50 2z"/>
<path d="M4247 523 c-9 -9 -9 -33 1 -33 4 0 18 9 32 20 l25 20 -26 0 c-14 0
-29 -3 -32 -7z"/>
<path d="M2460 439 c0 -5 5 -7 10 -4 6 3 10 8 10 11 0 2 -4 4 -10 4 -5 0 -10
-5 -10 -11z"/>
<path d="M5520 420 c0 -5 5 -10 11 -10 5 0 7 5 4 10 -3 6 -8 10 -11 10 -2 0
-4 -4 -4 -10z"/>
<path d="M5570 330 c0 -5 7 -10 16 -10 8 0 12 5 9 10 -3 6 -10 10 -16 10 -5 0
-9 -4 -9 -10z"/>
<path d="M5460 250 c0 -5 5 -10 11 -10 5 0 7 5 4 10 -3 6 -8 10 -11 10 -2 0
-4 -4 -4 -10z"/>
<path d="M4015 210 c-3 -5 1 -10 9 -10 9 0 16 5 16 10 0 6 -4 10 -9 10 -6 0
-13 -4 -16 -10z"/>
<path d="M5670 170 c0 -5 5 -10 11 -10 5 0 7 5 4 10 -3 6 -8 10 -11 10 -2 0
-4 -4 -4 -10z"/>
</g>
</svg>
